<?xml version="1.0" encoding="UTF-8" standalone="no"?>
<!-- Created with Inkscape (http://www.inkscape.org/) -->

<svg
   width="10.000004mm"
   height="10mm"
   viewBox="0 0 10.000004 10"
   version="1.1"
   id="svg8307"
   xmlns="http://www.w3.org/2000/svg"
   xmlns:svg="http://www.w3.org/2000/svg">
  <defs
     id="defs8304" />
  <g
     id="layer1"
     transform="translate(-57.880305,-139.5344)">
    <path
       id="path3747-9"
       style="fill:#000000;fill-opacity:1;stroke:none;stroke-width:0.00714286;stroke-dasharray:none;stroke-opacity:1;stop-color:#000000"
       d="m 65.41106,147.06198 -1.010164,-1.01012 a 2.1428581,2.1428572 0 0 1 -0.02429,0.0243 2.1428581,2.1428572 0 0 1 -0.05009,0.047 2.1428581,2.1428572 0 0 1 -0.0516,0.0454 2.1428581,2.1428572 0 0 1 -0.053,0.0437 2.1428581,2.1428572 0 0 1 -0.05437,0.042 2.1428581,2.1428572 0 0 1 -0.0557,0.0402 2.1428581,2.1428572 0 0 1 -0.05696,0.0384 2.1428581,2.1428572 0 0 1 -0.05817,0.0366 2.1428581,2.1428572 0 0 1 -0.05932,0.0347 2.1428581,2.1428572 0 0 1 -0.06039,0.0327 2.1428581,2.1428572 0 0 1 -0.06138,0.0308 2.1428581,2.1428572 0 0 1 -0.06234,0.0288 2.1428581,2.1428572 0 0 1 -0.06327,0.0268 2.1428581,2.1428572 0 0 1 -0.06408,0.0247 2.1428581,2.1428572 0 0 1 -0.06482,0.0227 2.1428581,2.1428572 0 0 1 -0.06555,0.0206 2.1428581,2.1428572 0 0 1 -0.06615,0.0185 2.1428581,2.1428572 0 0 1 -0.0667,0.0163 2.1428581,2.1428572 0 0 1 -0.06721,0.0142 2.1428581,2.1428572 0 0 1 -0.06762,0.012 2.1428581,2.1428572 0 0 1 -0.06799,0.01 2.1428581,2.1428572 0 0 1 -0.06825,0.008 2.1428581,2.1428572 0 0 1 -0.06847,0.006 2.1428581,2.1428572 0 0 1 -0.06862,0.003 2.1428581,2.1428572 0 0 1 -0.06869,0.001 2.1428581,2.1428572 0 0 1 -0.197699,-0.009 2.1428581,2.1428572 0 0 1 -0.196039,-0.0273 2.1428581,2.1428572 0 0 1 -0.192679,-0.0453 2.1428581,2.1428572 0 0 1 -0.187659,-0.0629 2.1428581,2.1428572 0 0 1 -0.181052,-0.08 2.1428581,2.1428572 0 0 1 -0.172932,-0.0963 2.1428581,2.1428572 0 0 1 -0.163297,-0.11184 2.1428581,2.1428572 0 0 1 -0.152261,-0.12646 2.1428581,2.1428572 0 0 1 -0.13997,-0.13997 2.1428581,2.1428572 0 0 1 -0.126422,-0.15226 2.1428581,2.1428572 0 0 1 -0.11188,-0.1633 2.1428581,2.1428572 0 0 1 -0.0963,-0.17289 2.1428581,2.1428572 0 0 1 -0.07995,-0.18109 2.1428581,2.1428572 0 0 1 -0.0629,-0.18766 2.1428581,2.1428572 0 0 1 -0.04533,-0.19268 2.1428581,2.1428572 0 0 1 -0.02732,-0.19604 2.1428581,2.1428572 0 0 1 -0.0092,-0.1977 2.1428581,2.1428572 0 0 1 0.0092,-0.19773 2.1428581,2.1428572 0 0 1 0.02731,-0.19601 2.1428581,2.1428572 0 0 1 0.04533,-0.19267 2.1428581,2.1428572 0 0 1 0.0629,-0.18766 2.1428581,2.1428572 0 0 1 0.07995,-0.18109 2.1428581,2.1428572 0 0 1 0.0963,-0.1729 2.1428581,2.1428572 0 0 1 0.11188,-0.1633 2.1428581,2.1428572 0 0 1 0.126422,-0.15229 2.1428581,2.1428572 0 0 1 0.13997,-0.13993 2.1428581,2.1428572 0 0 1 0.152261,-0.12646 2.1428581,2.1428572 0 0 1 0.163297,-0.11185 2.1428581,2.1428572 0 0 1 0.172931,-0.0963 2.1428581,2.1428572 0 0 1 0.181053,-0.0799 2.1428581,2.1428572 0 0 1 0.187659,-0.0629 2.1428581,2.1428572 0 0 1 0.192679,-0.0453 2.1428581,2.1428572 0 0 1 0.196039,-0.0274 2.1428581,2.1428572 0 0 1 0.197699,-0.009 2.1428581,2.1428572 0 0 1 0.197736,0.009 2.1428581,2.1428572 0 0 1 0.196039,0.0274 2.1428581,2.1428572 0 0 1 0.192679,0.0453 2.1428581,2.1428572 0 0 1 0.18766,0.0629 2.1428581,2.1428572 0 0 1 0.181052,0.0799 2.1428581,2.1428572 0 0 1 0.172931,0.0963 2.1428581,2.1428572 0 0 1 0.163298,0.11185 2.1428581,2.1428572 0 0 1 0.152261,0.12646 2.1428581,2.1428572 0 0 1 0.06999,0.07 l 1.010015,-1.01002 a 3.57143,3.5714285 0 0 0 -2.523656,-1.04781 3.57143,3.5714285 0 0 0 -3.571396,3.57143 3.57143,3.5714285 0 0 0 3.571396,3.57143 3.57143,3.5714285 0 0 0 2.525207,-1.04626 z" />
    <ellipse
       style="fill:#000000;fill-opacity:1;stroke:#000000;stroke-width:0.00714286;stroke-dasharray:none;stroke-opacity:1;stop-color:#000000"
       id="path3832"
       cx="62.874722"
       cy="144.53198"
       rx="0.71428603"
       ry="0.71428567" />
  </g>
</svg>
