<?xml version="1.0" encoding="UTF-8" standalone="no"?>
<!-- Created with Inkscape (http://www.inkscape.org/) -->

<svg
   width="9.9999981mm"
   height="10mm"
   viewBox="0 0 9.9999981 10"
   version="1.1"
   id="svg8307"
   sodipodi:docname="cos.svg"
   inkscape:version="1.2.1 (9c6d41e410, 2022-07-14)"
   xmlns:inkscape="http://www.inkscape.org/namespaces/inkscape"
   xmlns:sodipodi="http://sodipodi.sourceforge.net/DTD/sodipodi-0.dtd"
   xmlns="http://www.w3.org/2000/svg"
   xmlns:svg="http://www.w3.org/2000/svg">
  <sodipodi:namedview
     id="namedview1506"
     pagecolor="#ffffff"
     bordercolor="#111111"
     borderopacity="1"
     inkscape:showpageshadow="0"
     inkscape:pageopacity="0"
     inkscape:pagecheckerboard="1"
     inkscape:deskcolor="#d1d1d1"
     inkscape:document-units="mm"
     showgrid="false"
     inkscape:zoom="6.2441667"
     inkscape:cx="18.977713"
     inkscape:cy="-7.6871747"
     inkscape:window-width="4498"
     inkscape:window-height="1488"
     inkscape:window-x="0"
     inkscape:window-y="20"
     inkscape:window-maximized="1"
     inkscape:current-layer="svg8307" />
  <defs
     id="defs8304" />
  <path
     id="path3747-1"
     style="fill:#000000;fill-opacity:1;stroke:none;stroke-width:0.00714286;stroke-dasharray:none;stroke-opacity:1;stop-color:#000000"
     d="M 7.53075,7.52758 6.52058,6.51746 a 2.1428572,2.1428572 0 0 1 -0.0243,0.0243 2.1428572,2.1428572 0 0 1 -0.0501,0.047 2.1428572,2.1428572 0 0 1 -0.0516,0.0454 2.1428572,2.1428572 0 0 1 -0.053,0.0437 2.1428572,2.1428572 0 0 1 -0.0544,0.042 2.1428572,2.1428572 0 0 1 -0.0557,0.0402 2.1428572,2.1428572 0 0 1 -0.057,0.0384 2.1428572,2.1428572 0 0 1 -0.0582,0.0366 2.1428572,2.1428572 0 0 1 -0.0593,0.0347 2.1428572,2.1428572 0 0 1 -0.0604,0.0327 2.1428572,2.1428572 0 0 1 -0.0614,0.0308 2.1428572,2.1428572 0 0 1 -0.0623,0.0288 2.1428572,2.1428572 0 0 1 -0.0633,0.0268 2.1428572,2.1428572 0 0 1 -0.0641,0.0247 2.1428572,2.1428572 0 0 1 -0.0648,0.0227 2.1428572,2.1428572 0 0 1 -0.0656,0.0206 2.1428572,2.1428572 0 0 1 -0.0661,0.0185 2.1428572,2.1428572 0 0 1 -0.0667,0.0164 2.1428572,2.1428572 0 0 1 -0.0672,0.0142 2.1428572,2.1428572 0 0 1 -0.0676,0.012 2.1428572,2.1428572 0 0 1 -0.068,0.01 2.1428572,2.1428572 0 0 1 -0.0683,0.008 2.1428572,2.1428572 0 0 1 -0.0685,0.006 2.1428572,2.1428572 0 0 1 -0.0686,0.003 2.1428572,2.1428572 0 0 1 -0.0687,10e-4 2.1428572,2.1428572 0 0 1 -0.1977,-0.009 A 2.1428572,2.1428572 0 0 1 4.61164,7.10956 2.1428572,2.1428572 0 0 1 4.41896,7.06426 2.1428572,2.1428572 0 0 1 4.2313,7.00136 2.1428572,2.1428572 0 0 1 4.05025,6.92146 2.1428572,2.1428572 0 0 1 3.87732,6.82516 2.1428572,2.1428572 0 0 1 3.71402,6.71332 2.1428572,2.1428572 0 0 1 3.56176,6.58686 2.1428572,2.1428572 0 0 1 3.42179,6.44689 2.1428572,2.1428572 0 0 1 3.29537,6.29463 2.1428572,2.1428572 0 0 1 3.18349,6.13133 2.1428572,2.1428572 0 0 1 3.08719,5.95844 2.1428572,2.1428572 0 0 1 3.00719,5.77735 2.1428572,2.1428572 0 0 1 2.94429,5.58969 2.1428572,2.1428572 0 0 1 2.89899,5.39701 2.1428572,2.1428572 0 0 1 2.87169,5.20097 a 2.1428572,2.1428572 0 0 1 -0.009,-0.1977 2.1428572,2.1428572 0 0 1 0.009,-0.19773 2.1428572,2.1428572 0 0 1 0.0273,-0.19601 2.1428572,2.1428572 0 0 1 0.0453,-0.19268 2.1428572,2.1428572 0 0 1 0.0629,-0.18765 2.1428572,2.1428572 0 0 1 0.08,-0.18109 2.1428572,2.1428572 0 0 1 0.0963,-0.1729 2.1428572,2.1428572 0 0 1 0.11188,-0.1633 2.1428572,2.1428572 0 0 1 0.12642,-0.15229 2.1428572,2.1428572 0 0 1 0.13997,-0.13994 2.1428572,2.1428572 0 0 1 0.15226,-0.12646 2.1428572,2.1428572 0 0 1 0.1633,-0.11184 2.1428572,2.1428572 0 0 1 0.17293,-0.0963 2.1428572,2.1428572 0 0 1 0.18105,-0.0799 2.1428572,2.1428572 0 0 1 0.18766,-0.0629 2.1428572,2.1428572 0 0 1 0.19268,-0.0453 2.1428572,2.1428572 0 0 1 0.19604,-0.0274 2.1428572,2.1428572 0 0 1 0.1977,-0.009 2.1428572,2.1428572 0 0 1 0.19773,0.009 2.1428572,2.1428572 0 0 1 0.19604,0.0274 2.1428572,2.1428572 0 0 1 0.19268,0.0453 2.1428572,2.1428572 0 0 1 0.18766,0.0629 2.1428572,2.1428572 0 0 1 0.18105,0.0799 2.1428572,2.1428572 0 0 1 0.17293,0.0963 2.1428572,2.1428572 0 0 1 0.1633,0.11184 2.1428572,2.1428572 0 0 1 0.15226,0.12646 2.1428572,2.1428572 0 0 1 0.07,0.07 L 7.52904,2.47966 A 3.5714285,3.5714285 0 0 0 5.00539,1.43185 3.5714285,3.5714285 0 0 0 1.43399,5.00328 3.5714285,3.5714285 0 0 0 5.00539,8.57471 3.5714285,3.5714285 0 0 0 7.53059,7.52845 Z" />
  <path
     id="path1379-9"
     style="fill:#000000;fill-opacity:1;stroke:#000000;stroke-width:0.00714282;stroke-dasharray:none;stroke-opacity:1;stop-color:#000000"
     d="M 7.98165,3.0284 6.9364,4.07367 a 2.1428371,2.1428554 0 0 1 0.01,0.0204 2.1428371,2.1428554 0 0 1 0.0227,0.0503 2.1428371,2.1428554 0 0 1 0.0214,0.0508 2.1428371,2.1428554 0 0 1 0.0201,0.0514 2.1428371,2.1428554 0 0 1 0.0188,0.0519 2.1428371,2.1428554 0 0 1 0.0174,0.0524 2.1428371,2.1428554 0 0 1 0.0161,0.0528 2.1428371,2.1428554 0 0 1 0.0147,0.0532 2.1428371,2.1428554 0 0 1 0.0134,0.0535 2.1428371,2.1428554 0 0 1 0.012,0.0539 2.1428371,2.1428554 0 0 1 0.0106,0.0541 2.1428371,2.1428554 0 0 1 0.009,0.0544 2.1428371,2.1428554 0 0 1 0.008,0.0546 2.1428371,2.1428554 0 0 1 0.006,0.0548 2.1428371,2.1428554 0 0 1 0.005,0.055 2.1428371,2.1428554 0 0 1 0.004,0.0551 2.1428371,2.1428554 0 0 1 0.002,0.0551 2.1428371,2.1428554 0 0 1 7.1e-4,0.0552 2.1428371,2.1428554 0 0 1 -0.006,0.16012 2.1428371,2.1428554 0 0 1 -0.0179,0.15924 2.1428371,2.1428554 0 0 1 -0.0298,0.15746 2.1428371,2.1428554 0 0 1 -0.0415,0.15477 2.1428371,2.1428554 0 0 1 -0.0529,0.15127 2.1428371,2.1428554 0 0 1 -0.0622,0.14244 L 7.98353,6.97336 A 3.571395,3.5714255 0 0 0 8.57699,5.00242 3.571395,3.5714255 0 0 0 7.98172,3.02838 Z" />
</svg>
