<?xml version="1.0" encoding="UTF-8" standalone="no"?>
<!-- Created with Inkscape (http://www.inkscape.org/) -->

<svg
   width="10mm"
   height="10mm"
   viewBox="0 0 10 10"
   version="1.1"
   id="svg8307"
   xmlns="http://www.w3.org/2000/svg"
   xmlns:svg="http://www.w3.org/2000/svg">
  <defs
     id="defs8304" />
  <g
     id="layer1"
     transform="translate(38.87713,-163.73728)">
    <path
       id="path3786-1"
       style="fill:#000000;fill-opacity:1;stroke:#000000;stroke-width:0.00714286;stroke-dasharray:none;stroke-opacity:1;stop-color:#000000"
       d="m -33.871533,165.16829 a 3.5714286,3.5714286 0 0 0 -3.571432,3.57143 3.5714286,3.5714286 0 0 0 3.571432,3.57139 3.5714286,3.5714286 0 0 0 3.571395,-3.57139 3.5714286,3.5714286 0 0 0 -3.571395,-3.57143 z m 0,1.42856 a 2.1428573,2.1428573 0 0 1 0.05515,7.1e-4 2.1428573,2.1428573 0 0 1 0.05515,0.002 2.1428573,2.1428573 0 0 1 0.05507,0.004 2.1428573,2.1428573 0 0 1 0.05496,0.005 2.1428573,2.1428573 0 0 1 0.05481,0.006 2.1428573,2.1428573 0 0 1 0.05459,0.008 2.1428573,2.1428573 0 0 1 0.05441,0.009 2.1428573,2.1428573 0 0 1 0.05419,0.0106 2.1428573,2.1428573 0 0 1 0.05386,0.012 2.1428573,2.1428573 0 0 1 0.05352,0.0134 2.1428573,2.1428573 0 0 1 0.05319,0.0147 2.1428573,2.1428573 0 0 1 0.05278,0.0161 2.1428573,2.1428573 0 0 1 0.05234,0.0175 2.1428573,2.1428573 0 0 1 0.05186,0.0188 2.1428573,2.1428573 0 0 1 0.05138,0.0201 2.1428573,2.1428573 0 0 1 0.05083,0.0215 2.1428573,2.1428573 0 0 1 0.05027,0.0227 2.1428573,2.1428573 0 0 1 0.04968,0.024 2.1428573,2.1428573 0 0 1 0.04902,0.0253 2.1428573,2.1428573 0 0 1 0.04839,0.0265 2.1428573,2.1428573 0 0 1 0.04765,0.0278 2.1428573,2.1428573 0 0 1 0.04695,0.029 2.1428573,2.1428573 0 0 1 0.04618,0.0302 2.1428573,2.1428573 0 0 1 0.04536,0.0314 2.1428573,2.1428573 0 0 1 0.04455,0.0326 2.1428573,2.1428573 0 0 1 0.0437,0.0337 2.1428573,2.1428573 0 0 1 0.04282,0.0348 2.1428573,2.1428573 0 0 1 0.04193,0.0359 2.1428573,2.1428573 0 0 1 0.04097,0.0369 2.1428573,2.1428573 0 0 1 0.04001,0.038 2.1428573,2.1428573 0 0 1 0.03902,0.039 2.1428573,2.1428573 0 0 1 0.03798,0.04 2.1428573,2.1428573 0 0 1 0.03695,0.041 2.1428573,2.1428573 0 0 1 0.03592,0.0419 2.1428573,2.1428573 0 0 1 0.03481,0.0428 2.1428573,2.1428573 0 0 1 0.03366,0.0437 2.1428573,2.1428573 0 0 1 0.03256,0.0446 2.1428573,2.1428573 0 0 1 0.03137,0.0454 2.1428573,2.1428573 0 0 1 0.03023,0.0462 2.1428573,2.1428573 0 0 1 0.02901,0.0469 2.1428573,2.1428573 0 0 1 0.02779,0.0477 2.1428573,2.1428573 0 0 1 0.02654,0.0484 2.1428573,2.1428573 0 0 1 0.02532,0.049 2.1428573,2.1428573 0 0 1 0.02403,0.0497 2.1428573,2.1428573 0 0 1 0.02274,0.0503 2.1428573,2.1428573 0 0 1 0.02145,0.0508 2.1428573,2.1428573 0 0 1 0.02012,0.0514 2.1428573,2.1428573 0 0 1 0.01882,0.0519 2.1428573,2.1428573 0 0 1 0.01742,0.0524 2.1428573,2.1428573 0 0 1 0.01613,0.0528 2.1428573,2.1428573 0 0 1 0.01473,0.0532 2.1428573,2.1428573 0 0 1 0.01336,0.0535 2.1428573,2.1428573 0 0 1 0.012,0.0539 2.1428573,2.1428573 0 0 1 0.01059,0.0541 2.1428573,2.1428573 0 0 1 0.0092,0.0544 2.1428573,2.1428573 0 0 1 0.0078,0.0546 2.1428573,2.1428573 0 0 1 0.0063,0.0548 2.1428573,2.1428573 0 0 1 0.005,0.055 2.1428573,2.1428573 0 0 1 0.0035,0.0551 2.1428573,2.1428573 0 0 1 0.0021,0.0551 2.1428573,2.1428573 0 0 1 7.14e-4,0.0552 2.1428573,2.1428573 0 0 1 -0.006,0.16012 2.1428573,2.1428573 0 0 1 -0.01794,0.15924 2.1428573,2.1428573 0 0 1 -0.02979,0.15747 2.1428573,2.1428573 0 0 1 -0.04149,0.15477 2.1428573,2.1428573 0 0 1 -0.05293,0.15126 2.1428573,2.1428573 0 0 1 -0.06408,0.14687 2.1428573,2.1428573 0 0 1 -0.07489,0.14167 2.1428573,2.1428573 0 0 1 -0.08523,0.13569 2.1428573,2.1428573 0 0 1 -0.09516,0.12893 2.1428573,2.1428573 0 0 1 -0.104534,0.12148 2.1428573,2.1428573 0 0 1 -0.113319,0.11332 2.1428573,2.1428573 0 0 1 -0.121477,0.10453 2.1428573,2.1428573 0 0 1 -0.128933,0.0952 2.1428573,2.1428573 0 0 1 -0.135687,0.0852 2.1428573,2.1428573 0 0 1 -0.141667,0.0749 2.1428573,2.1428573 0 0 1 -0.146872,0.0641 2.1428573,2.1428573 0 0 1 -0.151264,0.0529 2.1428573,2.1428573 0 0 1 -0.154771,0.0415 2.1428573,2.1428573 0 0 1 -0.157466,0.0298 2.1428573,2.1428573 0 0 1 -0.159237,0.0179 2.1428573,2.1428573 0 0 1 -0.160123,0.006 2.1428573,2.1428573 0 0 1 -0.16016,-0.006 2.1428573,2.1428573 0 0 1 -0.159238,-0.0179 2.1428573,2.1428573 0 0 1 -0.157465,-0.0298 2.1428573,2.1428573 0 0 1 -0.154771,-0.0415 2.1428573,2.1428573 0 0 1 -0.151264,-0.0529 2.1428573,2.1428573 0 0 1 -0.146872,-0.0641 2.1428573,2.1428573 0 0 1 -0.141667,-0.0749 2.1428573,2.1428573 0 0 1 -0.135688,-0.0852 2.1428573,2.1428573 0 0 1 -0.128932,-0.0952 2.1428573,2.1428573 0 0 1 -0.121477,-0.10453 2.1428573,2.1428573 0 0 1 -0.113318,-0.11332 2.1428573,2.1428573 0 0 1 -0.104535,-0.12148 2.1428573,2.1428573 0 0 1 -0.09516,-0.12893 2.1428573,2.1428573 0 0 1 -0.08523,-0.13569 2.1428573,2.1428573 0 0 1 -0.07489,-0.14167 2.1428573,2.1428573 0 0 1 -0.06408,-0.14687 2.1428573,2.1428573 0 0 1 -0.05293,-0.15126 2.1428573,2.1428573 0 0 1 -0.04145,-0.15477 2.1428573,2.1428573 0 0 1 -0.02982,-0.15747 2.1428573,2.1428573 0 0 1 -0.01794,-0.15924 2.1428573,2.1428573 0 0 1 -0.006,-0.16012 2.1428573,2.1428573 0 0 1 0.006,-0.16016 2.1428573,2.1428573 0 0 1 0.01794,-0.15924 2.1428573,2.1428573 0 0 1 0.02982,-0.15746 2.1428573,2.1428573 0 0 1 0.04145,-0.15477 2.1428573,2.1428573 0 0 1 0.05293,-0.15127 2.1428573,2.1428573 0 0 1 0.06408,-0.14687 2.1428573,2.1428573 0 0 1 0.07489,-0.14167 2.1428573,2.1428573 0 0 1 0.08523,-0.13568 2.1428573,2.1428573 0 0 1 0.09516,-0.12894 2.1428573,2.1428573 0 0 1 0.104535,-0.12147 2.1428573,2.1428573 0 0 1 0.113318,-0.11332 2.1428573,2.1428573 0 0 1 0.121477,-0.10454 2.1428573,2.1428573 0 0 1 0.128932,-0.0952 2.1428573,2.1428573 0 0 1 0.135688,-0.0852 2.1428573,2.1428573 0 0 1 0.141667,-0.0749 2.1428573,2.1428573 0 0 1 0.146872,-0.0641 2.1428573,2.1428573 0 0 1 0.151264,-0.0529 2.1428573,2.1428573 0 0 1 0.154771,-0.0415 2.1428573,2.1428573 0 0 1 0.157465,-0.0298 2.1428573,2.1428573 0 0 1 0.159238,-0.0179 2.1428573,2.1428573 0 0 1 0.16016,-0.006 z" />
  </g>
</svg>
