<?xml version="1.0" encoding="UTF-8" standalone="no"?>
<!-- Created with Inkscape (http://www.inkscape.org/) -->

<svg
   width="9.9999847mm"
   height="10mm"
   viewBox="0 0 9.9999857 10"
   version="1.1"
   id="svg8307"
   xmlns="http://www.w3.org/2000/svg"
   xmlns:svg="http://www.w3.org/2000/svg">
  <defs
     id="defs8304" />
  <g
     id="layer1"
     transform="translate(-89.932496,-162.35413)">
    <path
       id="path3786-6"
       style="fill:#000000;fill-opacity:1;stroke:#000000;stroke-width:0.00714284;stroke-dasharray:none;stroke-opacity:1;stop-color:#000000"
       d="m 96.953326,169.37467 a 2.8571361,2.857145 12.290975 0 0 0.159762,-0.1739 2.8571361,2.857145 12.290975 0 0 0.145028,-0.18634 2.8571361,2.857145 12.290975 0 0 0.129131,-0.19771 2.8571361,2.857145 12.290975 0 0 0.112387,-0.2077 2.8571361,2.857145 12.290975 0 0 0.09491,-0.21623 2.8571361,2.857145 12.290975 0 0 0.0767,-0.22335 2.8571361,2.857145 12.290975 0 0 0.058,-0.22892 2.8571361,2.857145 12.290975 0 0 0.0389,-0.23292 2.8571361,2.857145 12.290975 0 0 0.0195,-0.23532 2.8571361,2.857145 12.290975 0 0 0,-0.23616 2.8571361,2.857145 12.290975 0 0 -0.0195,-0.23533 2.8571361,2.857145 12.290975 0 0 -0.0389,-0.23292 2.8571361,2.857145 12.290975 0 0 -0.058,-0.22893 2.8571361,2.857145 12.290975 0 0 -0.0767,-0.22334 2.8571361,2.857145 12.290975 0 0 -0.0949,-0.21624 2.8571361,2.857145 12.290975 0 0 -0.112388,-0.20771 2.8571361,2.857145 12.290975 0 0 -0.129127,-0.19771 2.8571361,2.857145 12.290975 0 0 -0.145032,-0.18633 2.8571361,2.857145 12.290975 0 0 -0.159766,-0.17391 l -0.502617,0.50262 a 2.1428523,2.1428589 11.991972 0 1 0.106449,0.11493 2.1428523,2.1428589 11.991972 0 1 0.09993,0.12525 2.1428523,2.1428589 11.991972 0 1 0.09017,0.13246 2.1428523,2.1428589 11.991972 0 1 0.08008,0.13877 2.1428523,2.1428589 11.991972 0 1 0.06947,0.14442 2.1428523,2.1428589 11.991972 0 1 0.05851,0.14916 2.1428523,2.1428589 11.991972 0 1 0.0472,0.15313 2.1428523,2.1428589 11.991972 0 1 0.03571,0.1562 2.1428523,2.1428589 11.991972 0 1 0.02394,0.15842 2.1428523,2.1428589 11.991972 0 1 0.012,0.15981 2.1428523,2.1428589 11.991972 0 1 0,0.16026 2.1428523,2.1428589 11.991972 0 1 -0.012,0.15982 2.1428523,2.1428589 11.991972 0 1 -0.02389,0.15841 2.1428523,2.1428589 11.991972 0 1 -0.0357,0.15619 2.1428523,2.1428589 11.991972 0 1 -0.0472,0.15314 2.1428523,2.1428589 11.991972 0 1 -0.0585,0.14918 2.1428523,2.1428589 11.991972 0 1 -0.0695,0.14437 2.1428523,2.1428589 11.991972 0 1 -0.08009,0.13878 2.1428523,2.1428589 11.991972 0 1 -0.09031,0.13242 2.1428523,2.1428589 11.991972 0 1 -0.0999,0.12526 2.1428523,2.1428589 11.991972 0 1 -0.109007,0.11749 l 2.9e-5,3e-5 a 2.1428523,2.1428589 11.991972 0 1 -0.0019,0.002 z" />
    <path
       id="path5655-0"
       style="fill:#000000;fill-opacity:1;stroke:#000000;stroke-width:0.00714284;stroke-dasharray:none;stroke-opacity:1;stop-color:#000000"
       d="m 92.91274,169.37471 0.507571,-0.50758 a 2.1428523,2.1428589 11.991972 0 1 -0.003,-0.003 2.1428523,2.1428589 11.991972 0 1 -0.108983,-0.11747 2.1428523,2.1428589 11.991972 0 1 -0.09993,-0.12524 2.1428523,2.1428589 11.991972 0 1 -0.09028,-0.13243 2.1428523,2.1428589 11.991972 0 1 -0.08009,-0.13878 2.1428523,2.1428589 11.991972 0 1 -0.06947,-0.14442 2.1428523,2.1428589 11.991972 0 1 -0.05863,-0.14914 2.1428523,2.1428589 11.991972 0 1 -0.0472,-0.15313 2.1428523,2.1428589 11.991972 0 1 -0.03571,-0.1562 2.1428523,2.1428589 11.991972 0 1 -0.02393,-0.15842 2.1428523,2.1428589 11.991972 0 1 -0.01199,-0.15982 2.1428523,2.1428589 11.991972 0 1 0,-0.16026 2.1428523,2.1428589 11.991972 0 1 0.01199,-0.15981 2.1428523,2.1428589 11.991972 0 1 0.0238,-0.15849 2.1428523,2.1428589 11.991972 0 1 0.0357,-0.15619 2.1428523,2.1428589 11.991972 0 1 0.0472,-0.15314 2.1428523,2.1428589 11.991972 0 1 0.0585,-0.14918 2.1428523,2.1428589 11.991972 0 1 0.06949,-0.14436 2.1428523,2.1428589 11.991972 0 1 0.0801,-0.13879 2.1428523,2.1428589 11.991972 0 1 0.0903,-0.13242 2.1428523,2.1428589 11.991972 0 1 0.0999,-0.12525 2.1428523,2.1428589 11.991972 0 1 0.106503,-0.11499 l -0.502587,-0.50259 a 2.8571361,2.857145 12.290975 0 0 -0.159763,0.1739 2.8571361,2.857145 12.290975 0 0 -0.14507,0.18637 2.8571361,2.857145 12.290975 0 0 -0.129188,0.19764 2.8571361,2.857145 12.290975 0 0 -0.112387,0.2077 2.8571361,2.857145 12.290975 0 0 -0.0949,0.21623 2.8571361,2.857145 12.290975 0 0 -0.07671,0.22335 2.8571361,2.857145 12.290975 0 0 -0.058,0.22893 2.8571361,2.857145 12.290975 0 0 -0.03889,0.23288 2.8571361,2.857145 12.290975 0 0 -0.0195,0.23536 2.8571361,2.857145 12.290975 0 0 -9e-6,0.23615 2.8571361,2.857145 12.290975 0 0 0.0195,0.23535 2.8571361,2.857145 12.290975 0 0 0.0389,0.2329 2.8571361,2.857145 12.290975 0 0 0.058,0.22892 2.8571361,2.857145 12.290975 0 0 0.0766,0.22334 2.8571361,2.857145 12.290975 0 0 0.0949,0.21624 2.8571361,2.857145 12.290975 0 0 0.112398,0.20772 2.8571361,2.857145 12.290975 0 0 0.129189,0.19764 2.8571361,2.857145 12.290975 0 0 0.145061,0.18635 2.8571361,2.857145 12.290975 0 0 0.159761,0.17391 z" />
    <path
       id="path10865"
       style="fill:#000000;fill-opacity:1;stroke:#000000;stroke-width:0.00714285;stroke-dasharray:none;stroke-opacity:1;stop-color:#000000"
       d="m 94.932496,165.92557 a 1.4285694,1.4285714 0 0 0 -1.428593,1.42856 1.4285694,1.4285714 0 0 0 1.428593,1.42856 1.4285694,1.4285714 0 0 0 1.428556,-1.42856 1.4285694,1.4285714 0 0 0 -1.428556,-1.42856 z m 0,0.71428 a 0.7142847,0.7142857 0 0 1 0.01838,2.1e-4 0.7142847,0.7142857 0 0 1 0.01838,7.4e-4 0.7142847,0.7142857 0 0 1 0.01834,10e-4 0.7142847,0.7142857 0 0 1 0.01834,0.002 0.7142847,0.7142857 0 0 1 0.01823,0.002 0.7142847,0.7142857 0 0 1 0.01824,0.003 0.7142847,0.7142857 0 0 1 0.01812,0.003 0.7142847,0.7142857 0 0 1 0.01805,0.004 0.7142847,0.7142857 0 0 1 0.01798,0.004 0.7142847,0.7142857 0 0 1 0.01783,0.004 0.7142847,0.7142857 0 0 1 0.01772,0.005 0.7142847,0.7142857 0 0 1 0.01761,0.005 0.7142847,0.7142857 0 0 1 0.01742,0.006 0.7142847,0.7142857 0 0 1 0.01731,0.006 0.7142847,0.7142857 0 0 1 0.01713,0.007 0.7142847,0.7142857 0 0 1 0.01694,0.007 0.7142847,0.7142857 0 0 1 0.01676,0.008 0.7142847,0.7142857 0 0 1 0.01657,0.008 0.7142847,0.7142857 0 0 1 0.01632,0.008 0.7142847,0.7142857 0 0 1 0.01613,0.009 0.7142847,0.7142857 0 0 1 0.01591,0.009 0.7142847,0.7142857 0 0 1 0.01565,0.01 0.7142847,0.7142857 0 0 1 0.01535,0.0101 0.7142847,0.7142857 0 0 1 0.01513,0.0104 0.7142847,0.7142857 0 0 1 0.01488,0.0109 0.7142847,0.7142857 0 0 1 0.01454,0.0112 0.7142847,0.7142857 0 0 1 0.01429,0.0116 0.7142847,0.7142857 0 0 1 0.01399,0.012 0.7142847,0.7142857 0 0 1 0.01366,0.0123 0.7142847,0.7142857 0 0 1 0.01333,0.0127 0.7142847,0.7142857 0 0 1 0.01299,0.013 0.7142847,0.7142857 0 0 1 0.01266,0.0133 0.7142847,0.7142857 0 0 1 0.01233,0.0137 0.7142847,0.7142857 0 0 1 0.01196,0.014 0.7142847,0.7142857 0 0 1 0.01159,0.0143 0.7142847,0.7142857 0 0 1 0.01126,0.0145 0.7142847,0.7142857 0 0 1 0.01085,0.0149 0.7142847,0.7142857 0 0 1 0.01045,0.0151 0.7142847,0.7142857 0 0 1 0.01008,0.0154 0.7142847,0.7142857 0 0 1 0.0097,0.0156 0.7142847,0.7142857 0 0 1 0.0093,0.0159 0.7142847,0.7142857 0 0 1 0.0089,0.0161 0.7142847,0.7142857 0 0 1 0.0084,0.0163 0.7142847,0.7142857 0 0 1 0.008,0.0166 0.7142847,0.7142857 0 0 1 0.0076,0.0168 0.7142847,0.7142857 0 0 1 0.0071,0.0169 0.7142847,0.7142857 0 0 1 0.0067,0.0171 0.7142847,0.7142857 0 0 1 0.0063,0.0173 0.7142847,0.7142857 0 0 1 0.0058,0.0175 0.7142847,0.7142857 0 0 1 0.0054,0.0176 0.7142847,0.7142857 0 0 1 0.0049,0.0177 0.7142847,0.7142857 0 0 1 0.0045,0.0178 0.7142847,0.7142857 0 0 1 0.004,0.018 0.7142847,0.7142857 0 0 1 0.0035,0.018 0.7142847,0.7142857 0 0 1 0.0031,0.0181 0.7142847,0.7142857 0 0 1 0.0026,0.0182 0.7142847,0.7142857 0 0 1 0.0021,0.0183 0.7142847,0.7142857 0 0 1 0.0017,0.0183 0.7142847,0.7142857 0 0 1 0.0012,0.0183 0.7142847,0.7142857 0 0 1 7.36e-4,0.0184 0.7142847,0.7142857 0 0 1 2.14e-4,0.0184 0.7142847,0.7142857 0 0 1 -0.002,0.0534 0.7142847,0.7142857 0 0 1 -0.006,0.0531 0.7142847,0.7142857 0 0 1 -0.0099,0.0525 0.7142847,0.7142857 0 0 1 -0.01384,0.0516 0.7142847,0.7142857 0 0 1 -0.01764,0.0504 0.7142847,0.7142857 0 0 1 -0.02133,0.0489 0.7142847,0.7142857 0 0 1 -0.02499,0.0473 0.7142847,0.7142857 0 0 1 -0.02842,0.0452 0.7142847,0.7142857 0 0 1 -0.03171,0.043 0.7142847,0.7142857 0 0 1 -0.03484,0.0405 0.7142847,0.7142857 0 0 1 -0.03776,0.0378 0.7142847,0.7142857 0 0 1 -0.04049,0.0348 0.7142847,0.7142857 0 0 1 -0.04297,0.0317 0.7142847,0.7142857 0 0 1 -0.04525,0.0284 0.7142847,0.7142857 0 0 1 -0.04721,0.0249 0.7142847,0.7142857 0 0 1 -0.04894,0.0214 0.7142847,0.7142857 0 0 1 -0.05042,0.0176 0.7142847,0.7142857 0 0 1 -0.0516,0.0138 0.7142847,0.7142857 0 0 1 -0.05249,0.01 0.7142847,0.7142857 0 0 1 -0.05308,0.006 0.7142847,0.7142857 0 0 1 -0.05338,0.002 0.7142847,0.7142857 0 0 1 -0.05337,-0.002 0.7142847,0.7142857 0 0 1 -0.05308,-0.006 0.7142847,0.7142857 0 0 1 -0.05249,-0.01 0.7142847,0.7142857 0 0 1 -0.0516,-0.0138 0.7142847,0.7142857 0 0 1 -0.05042,-0.0176 0.7142847,0.7142857 0 0 1 -0.04895,-0.0214 0.7142847,0.7142857 0 0 1 -0.04725,-0.0249 0.7142847,0.7142857 0 0 1 -0.04522,-0.0284 0.7142847,0.7142857 0 0 1 -0.04297,-0.0317 0.7142847,0.7142857 0 0 1 -0.04049,-0.0348 0.7142847,0.7142857 0 0 1 -0.0378,-0.0378 0.7142847,0.7142857 0 0 1 -0.03484,-0.0405 0.7142847,0.7142857 0 0 1 -0.03171,-0.043 0.7142847,0.7142857 0 0 1 -0.02842,-0.0452 0.7142847,0.7142857 0 0 1 -0.02495,-0.0473 0.7142847,0.7142857 0 0 1 -0.02137,-0.0489 0.7142847,0.7142857 0 0 1 -0.01764,-0.0504 0.7142847,0.7142857 0 0 1 -0.01381,-0.0516 0.7142847,0.7142857 0 0 1 -0.0099,-0.0525 0.7142847,0.7142857 0 0 1 -0.006,-0.0531 0.7142847,0.7142857 0 0 1 -0.002,-0.0534 0.7142847,0.7142857 0 0 1 0.002,-0.0534 0.7142847,0.7142857 0 0 1 0.006,-0.0531 0.7142847,0.7142857 0 0 1 0.0099,-0.0525 0.7142847,0.7142857 0 0 1 0.01381,-0.0516 0.7142847,0.7142857 0 0 1 0.01764,-0.0504 0.7142847,0.7142857 0 0 1 0.02137,-0.049 0.7142847,0.7142857 0 0 1 0.02495,-0.0472 0.7142847,0.7142857 0 0 1 0.02842,-0.0452 0.7142847,0.7142857 0 0 1 0.03171,-0.043 0.7142847,0.7142857 0 0 1 0.03484,-0.0405 0.7142847,0.7142857 0 0 1 0.0378,-0.0378 0.7142847,0.7142857 0 0 1 0.04049,-0.0349 0.7142847,0.7142857 0 0 1 0.04297,-0.0317 0.7142847,0.7142857 0 0 1 0.04522,-0.0284 0.7142847,0.7142857 0 0 1 0.04725,-0.025 0.7142847,0.7142857 0 0 1 0.04895,-0.0213 0.7142847,0.7142857 0 0 1 0.05042,-0.0176 0.7142847,0.7142857 0 0 1 0.0516,-0.0138 0.7142847,0.7142857 0 0 1 0.05249,-0.01 0.7142847,0.7142857 0 0 1 0.05308,-0.006 0.7142847,0.7142857 0 0 1 0.05337,-0.002 z" />
  </g>
</svg>
