<?xml version="1.0" encoding="UTF-8" standalone="no"?>
<!-- Created with Inkscape (http://www.inkscape.org/) -->

<svg
   width="9.9999981mm"
   height="10mm"
   viewBox="0 0 9.9999981 10"
   version="1.1"
   id="svg8307"
   xmlns="http://www.w3.org/2000/svg"
   xmlns:svg="http://www.w3.org/2000/svg">
  <defs
     id="defs8304" />
  <g
     id="layer1"
     transform="translate(-121.43985,-166.05284)">
    <g
       id="g7457"
       transform="matrix(0.12500003,0,-0.02204088,0.12499999,74.447633,118.55284)">
      <path
         id="path7317-9-5"
         style="fill:#000000;fill-opacity:1;stroke:#000000;stroke-width:0.0571428;stroke-dasharray:none;stroke-opacity:1;stop-color:#000000"
         d="m 489.97185,391.45716 a 28.571414,28.571431 0 0 0 -5.71423,0.58055 v 5.85125 a 22.857132,22.857144 0 0 1 0.40633,-0.11458 22.857132,22.857144 0 0 1 1.76024,-0.35021 22.857132,22.857144 0 0 1 1.78239,-0.21084 22.857132,22.857144 0 0 1 1.79332,-0.0706 22.857132,22.857144 0 0 1 0.59827,0.008 22.857132,22.857144 0 0 1 0.59797,0.0233 22.857132,22.857144 0 0 1 0.59708,0.0392 22.857132,22.857144 0 0 1 0.5959,0.0546 22.857132,22.857144 0 0 1 0.59443,0.0706 22.857132,22.857144 0 0 1 0.59207,0.0856 22.857132,22.857144 0 0 1 0.5897,0.10129 22.857132,22.857144 0 0 1 0.58704,0.11694 22.857132,22.857144 0 0 1 0.5835,0.13199 22.857132,22.857144 0 0 1 0.57996,0.14736 22.857132,22.857144 0 0 1 0.57582,0.16241 22.857132,22.857144 0 0 1 0.57169,0.17747 22.857132,22.857144 0 0 1 0.56638,0.19223 22.857132,22.857144 0 0 1 0.56164,0.2073 22.857132,22.857144 0 0 1 0.55574,0.22147 22.857132,22.857144 0 0 1 0.54984,0.23624 22.857132,22.857144 0 0 1 0.54334,0.2507 22.857132,22.857144 0 0 1 0.53655,0.26458 22.857132,22.857144 0 0 1 0.52976,0.27846 22.857132,22.857144 0 0 1 0.52208,0.29264 22.857132,22.857144 0 0 1 0.51411,0.30592 22.857132,22.857144 0 0 1 0.50613,0.31922 22.857132,22.857144 0 0 1 0.49757,0.3325 22.857132,22.857144 0 0 1 0.48871,0.3452 22.857132,22.857144 0 0 1 0.47926,0.35819 22.857132,22.857144 0 0 1 0.47011,0.3703 22.857132,22.857144 0 0 1 0.46007,0.3827 22.857132,22.857144 0 0 1 0.44973,0.39451 22.857132,22.857144 0 0 1 0.4394,0.40633 22.857132,22.857144 0 0 1 0.42876,0.41754 22.857132,22.857144 0 0 1 0.41755,0.42847 22.857132,22.857144 0 0 1 0.40602,0.4394 22.857132,22.857144 0 0 1 0.39452,0.45003 22.857132,22.857144 0 0 1 0.3827,0.46007 22.857132,22.857144 0 0 1 0.37059,0.46981 22.857132,22.857144 0 0 1 0.3579,0.47956 22.857132,22.857144 0 0 1 0.34549,0.48871 22.857132,22.857144 0 0 1 0.33221,0.49727 22.857132,22.857144 0 0 1 0.31951,0.50614 22.857132,22.857144 0 0 1 0.30592,0.5144 22.857132,22.857144 0 0 1 0.29234,0.52208 22.857132,22.857144 0 0 1 0.27846,0.52946 22.857132,22.857144 0 0 1 0.26488,0.53655 22.857132,22.857144 0 0 1 0.25041,0.54363 22.857132,22.857144 0 0 1 0.23624,0.54984 22.857132,22.857144 0 0 1 0.22176,0.55575 22.857132,22.857144 0 0 1 0.207,0.56135 22.857132,22.857144 0 0 1 0.19253,0.56667 22.857132,22.857144 0 0 1 0.17718,0.57139 22.857132,22.857144 0 0 1 0.16241,0.57583 22.857132,22.857144 0 0 1 0.14735,0.57995 22.857132,22.857144 0 0 1 0.132,0.5838 22.857132,22.857144 0 0 1 0.11694,0.58675 22.857132,22.857144 0 0 1 0.10128,0.5897 22.857132,22.857144 0 0 1 0.0859,0.59236 22.857132,22.857144 0 0 1 0.0703,0.59413 22.857132,22.857144 0 0 1 0.0546,0.5959 22.857132,22.857144 0 0 1 0.0393,0.59709 22.857132,22.857144 0 0 1 0.0233,0.59797 22.857132,22.857144 0 0 1 0.008,0.59826 22.857132,22.857144 0 0 1 -0.0706,1.79332 22.857132,22.857144 0 0 1 -0.21084,1.7824 22.857132,22.857144 0 0 1 -0.35022,1.76024 22.857132,22.857144 0 0 1 -0.48694,1.72718 22.857132,22.857144 0 0 1 -0.6213,1.68406 22.857132,22.857144 0 0 1 -0.75152,1.62973 22.857132,22.857144 0 0 1 -0.87673,1.56594 22.857132,22.857144 0 0 1 -0.9972,1.49212 22.857132,22.857144 0 0 1 -1.1112,1.40944 22.857132,22.857144 0 0 1 -1.21808,1.3179 22.857132,22.857144 0 0 1 -1.3179,1.21838 22.857132,22.857144 0 0 1 -1.40944,1.11119 22.857132,22.857144 0 0 1 -1.49241,0.99691 22.857132,22.857144 0 0 1 -1.56594,0.87703 22.857132,22.857144 0 0 1 -1.62973,0.75152 22.857132,22.857144 0 0 1 -1.68376,0.621 22.857132,22.857144 0 0 1 -1.72747,0.48724 22.857132,22.857144 0 0 1 -1.76025,0.35021 22.857132,22.857144 0 0 1 -1.78239,0.21084 22.857132,22.857144 0 0 1 -1.79332,0.0706 22.857132,22.857144 0 0 1 -1.79332,-0.0706 22.857132,22.857144 0 0 1 -1.78239,-0.21084 22.857132,22.857144 0 0 1 -1.76025,-0.35021 22.857132,22.857144 0 0 1 -0.40632,-0.11458 v 5.90824 a 28.571414,28.571431 0 0 0 5.71423,0.58055 28.571414,28.571431 0 0 0 28.57114,-28.57116 28.571414,28.571431 0 0 0 -28.57114,-28.57146 z" />
      <path
         id="path7331-9-8"
         style="fill:#000000;fill-opacity:1;stroke:none;stroke-width:0.0571428;stroke-dasharray:none;stroke-opacity:1;stop-color:#000000"
         d="m 484.28567,403.85035 v 6.25226 a 11.428566,11.428572 0 0 1 0.75566,-0.39953 11.428566,11.428572 0 0 1 0.78342,-0.34166 11.428566,11.428572 0 0 1 0.80674,-0.2823 11.428566,11.428572 0 0 1 0.82535,-0.22118 11.428566,11.428572 0 0 1 0.83981,-0.15886 11.428566,11.428572 0 0 1 0.84927,-0.0957 11.428566,11.428572 0 0 1 0.85398,-0.0319 11.428566,11.428572 0 0 1 0.29441,0.004 11.428566,11.428572 0 0 1 0.29411,0.0112 11.428566,11.428572 0 0 1 0.29352,0.0189 11.428566,11.428572 0 0 1 0.29323,0.0266 11.428566,11.428572 0 0 1 0.29234,0.0339 11.428566,11.428572 0 0 1 0.29116,0.0417 11.428566,11.428572 0 0 1 0.29028,0.049 11.428566,11.428572 0 0 1 0.28879,0.0564 11.428566,11.428572 0 0 1 0.28732,0.0638 11.428566,11.428572 0 0 1 0.28556,0.0715 11.428566,11.428572 0 0 1 0.28348,0.0785 11.428566,11.428572 0 0 1 0.28141,0.0859 11.428566,11.428572 0 0 1 0.27935,0.093 11.428566,11.428572 0 0 1 0.27669,0.1004 11.428566,11.428572 0 0 1 0.27403,0.1072 11.428566,11.428572 0 0 1 0.27108,0.11427 11.428566,11.428572 0 0 1 0.26813,0.12137 11.428566,11.428572 0 0 1 0.26488,0.12816 11.428566,11.428572 0 0 1 0.26133,0.13495 11.428566,11.428572 0 0 1 0.25809,0.14174 11.428566,11.428572 0 0 1 0.25424,0.14823 11.428566,11.428572 0 0 1 0.25042,0.15474 11.428566,11.428572 0 0 1 0.24627,0.16123 11.428566,11.428572 0 0 1 0.24185,0.16743 11.428566,11.428572 0 0 1 0.23771,0.17334 11.428566,11.428572 0 0 1 0.23298,0.17983 11.428566,11.428572 0 0 1 0.22856,0.18544 11.428566,11.428572 0 0 1 0.22354,0.19136 11.428566,11.428572 0 0 1 0.21851,0.19726 11.428566,11.428572 0 0 1 0.21321,0.20257 11.428566,11.428572 0 0 1 0.20818,0.20818 11.428566,11.428572 0 0 1 0.20257,0.2135 11.428566,11.428572 0 0 1 0.19726,0.21851 11.428566,11.428572 0 0 1 0.19135,0.22354 11.428566,11.428572 0 0 1 0.18574,0.22826 11.428566,11.428572 0 0 1 0.17954,0.23299 11.428566,11.428572 0 0 1 0.17363,0.23771 11.428566,11.428572 0 0 1 0.16743,0.24214 11.428566,11.428572 0 0 1 0.16094,0.24628 11.428566,11.428572 0 0 1 0.15473,0.25011 11.428566,11.428572 0 0 1 0.14824,0.25425 11.428566,11.428572 0 0 1 0.14174,0.25809 11.428566,11.428572 0 0 1 0.13495,0.26133 11.428566,11.428572 0 0 1 0.12816,0.26518 11.428566,11.428572 0 0 1 0.12136,0.26812 11.428566,11.428572 0 0 1 0.11428,0.27108 11.428566,11.428572 0 0 1 0.10749,0.27404 11.428566,11.428572 0 0 1 0.1001,0.27669 11.428566,11.428572 0 0 1 0.093,0.27905 11.428566,11.428572 0 0 1 0.0859,0.28141 11.428566,11.428572 0 0 1 0.0788,0.28378 11.428566,11.428572 0 0 1 0.0712,0.28555 11.428566,11.428572 0 0 1 0.0638,0.28703 11.428566,11.428572 0 0 1 0.0567,0.2888 11.428566,11.428572 0 0 1 0.049,0.29027 11.428566,11.428572 0 0 1 0.0413,0.29145 11.428566,11.428572 0 0 1 0.0339,0.29234 11.428566,11.428572 0 0 1 0.0266,0.29294 11.428566,11.428572 0 0 1 0.0189,0.29381 11.428566,11.428572 0 0 1 0.0115,0.29412 11.428566,11.428572 0 0 1 0.004,0.29411 11.428566,11.428572 0 0 1 -0.0322,0.85399 11.428566,11.428572 0 0 1 -0.0957,0.84926 11.428566,11.428572 0 0 1 -0.15887,0.83982 11.428566,11.428572 0 0 1 -0.22118,0.82564 11.428566,11.428572 0 0 1 -0.2823,0.80674 11.428566,11.428572 0 0 1 -0.34165,0.78312 11.428566,11.428572 0 0 1 -0.39953,0.75566 11.428566,11.428572 0 0 1 -0.45446,0.72377 11.428566,11.428572 0 0 1 -0.50761,0.68773 11.428566,11.428572 0 0 1 -0.55752,0.64759 11.428566,11.428572 0 0 1 -0.60417,0.60446 11.428566,11.428572 0 0 1 -0.64787,0.55752 11.428566,11.428572 0 0 1 -0.68774,0.50731 11.428566,11.428572 0 0 1 -0.72376,0.45475 11.428566,11.428572 0 0 1 -0.75537,0.39954 11.428566,11.428572 0 0 1 -0.78341,0.34165 11.428566,11.428572 0 0 1 -0.80674,0.2823 11.428566,11.428572 0 0 1 -0.82565,0.22117 11.428566,11.428572 0 0 1 -0.83952,0.15887 11.428566,11.428572 0 0 1 -0.84956,0.0957 11.428566,11.428572 0 0 1 -0.85399,0.0319 11.428566,11.428572 0 0 1 -0.85398,-0.0319 11.428566,11.428572 0 0 1 -0.84927,-0.0957 11.428566,11.428572 0 0 1 -0.83981,-0.15887 11.428566,11.428572 0 0 1 -0.82535,-0.22117 11.428566,11.428572 0 0 1 -0.80674,-0.2823 11.428566,11.428572 0 0 1 -0.78342,-0.34165 11.428566,11.428572 0 0 1 -0.75566,-0.39954 v 6.25256 a 17.14285,17.142859 0 0 0 5.71423,0.99307 17.14285,17.142859 0 0 0 17.14299,-17.14299 17.14285,17.142859 0 0 0 -17.14299,-17.1427 17.14285,17.142859 0 0 0 -5.71423,0.99307 z" />
    </g>
  </g>
</svg>
