<?xml version="1.0" encoding="UTF-8" standalone="no"?>
<!-- Created with Inkscape (http://www.inkscape.org/) -->

<svg
   width="9.9999981mm"
   height="10mm"
   viewBox="0 0 9.9999981 10"
   version="1.1"
   id="svg8307"
   sodipodi:docname="aco.svg"
   inkscape:version="1.2.1 (9c6d41e410, 2022-07-14)"
   xmlns:inkscape="http://www.inkscape.org/namespaces/inkscape"
   xmlns:sodipodi="http://sodipodi.sourceforge.net/DTD/sodipodi-0.dtd"
   xmlns="http://www.w3.org/2000/svg"
   xmlns:svg="http://www.w3.org/2000/svg">
  <sodipodi:namedview
     id="namedview1506"
     pagecolor="#ffffff"
     bordercolor="#111111"
     borderopacity="1"
     inkscape:showpageshadow="0"
     inkscape:pageopacity="0"
     inkscape:pagecheckerboard="1"
     inkscape:deskcolor="#d1d1d1"
     inkscape:document-units="mm"
     showgrid="false"
     inkscape:zoom="6.2441667"
     inkscape:cx="18.977713"
     inkscape:cy="18.897638"
     inkscape:window-width="4498"
     inkscape:window-height="1488"
     inkscape:window-x="0"
     inkscape:window-y="20"
     inkscape:window-maximized="1"
     inkscape:current-layer="svg8307" />
  <defs
     id="defs8304" />
  <path
     id="path1379-6"
     style="fill:#000000;fill-opacity:1;stroke:#000000;stroke-width:0.00714282;stroke-dasharray:none;stroke-opacity:1;stop-color:#000000"
     d="M 7.98165,3.0284 6.9364,4.07367 a 2.1428371,2.1428554 0 0 1 0.01,0.0204 2.1428371,2.1428554 0 0 1 0.0227,0.0503 2.1428371,2.1428554 0 0 1 0.0214,0.0508 2.1428371,2.1428554 0 0 1 0.0201,0.0514 2.1428371,2.1428554 0 0 1 0.0188,0.0519 2.1428371,2.1428554 0 0 1 0.0174,0.0524 2.1428371,2.1428554 0 0 1 0.0161,0.0528 2.1428371,2.1428554 0 0 1 0.0147,0.0532 2.1428371,2.1428554 0 0 1 0.0134,0.0535 2.1428371,2.1428554 0 0 1 0.012,0.0539 2.1428371,2.1428554 0 0 1 0.0106,0.0541 2.1428371,2.1428554 0 0 1 0.009,0.0544 2.1428371,2.1428554 0 0 1 0.008,0.0546 2.1428371,2.1428554 0 0 1 0.006,0.0548 2.1428371,2.1428554 0 0 1 0.005,0.055 2.1428371,2.1428554 0 0 1 0.004,0.0551 2.1428371,2.1428554 0 0 1 0.002,0.0551 2.1428371,2.1428554 0 0 1 7.1e-4,0.0552 2.1428371,2.1428554 0 0 1 -0.006,0.16012 2.1428371,2.1428554 0 0 1 -0.0179,0.15924 2.1428371,2.1428554 0 0 1 -0.0298,0.15746 2.1428371,2.1428554 0 0 1 -0.0415,0.15477 2.1428371,2.1428554 0 0 1 -0.0529,0.15127 2.1428371,2.1428554 0 0 1 -0.0622,0.14244 L 7.98353,6.97336 A 3.571395,3.5714255 0 0 0 8.57699,5.00242 3.571395,3.5714255 0 0 0 7.98172,3.02838 Z" />
  <path
     id="path5555-9-7"
     style="fill:#000000;fill-opacity:1;stroke:none;stroke-width:0.00714286;stroke-dasharray:none;stroke-opacity:1;stop-color:#000000"
     d="M 5.00553,1.431 A 3.571428,3.5714295 0 0 0 1.43413,5.00243 3.571428,3.5714295 0 0 0 5.00553,8.57387 3.571428,3.5714295 0 0 0 7.53073,7.5276 L 7.02013,7.01704 a 2.8571424,2.8571436 0 0 1 -0.002,0.002 L 6.5148,6.51571 6.4281,6.42901 6.00859,6.00951 A 1.4285712,1.4285718 0 0 1 5.96199,6.05621 1.4285712,1.4285718 0 0 1 5.86048,6.14051 1.4285712,1.4285718 0 0 1 5.75159,6.21511 1.4285712,1.4285718 0 0 1 5.63632,6.27931 1.4285712,1.4285718 0 0 1 5.51561,6.33261 1.4285712,1.4285718 0 0 1 5.39052,6.37451 1.4285712,1.4285718 0 0 1 5.26207,6.40471 1.4285712,1.4285718 0 0 1 5.13136,6.42291 1.4285712,1.4285718 0 0 1 4.99955,6.42891 1.4285712,1.4285718 0 0 1 4.86774,6.42291 1.4285712,1.4285718 0 0 1 4.73707,6.40471 1.4285712,1.4285718 0 0 1 4.60862,6.37451 1.4285712,1.4285718 0 0 1 4.48349,6.33261 1.4285712,1.4285718 0 0 1 4.36279,6.27931 1.4285712,1.4285718 0 0 1 4.24751,6.21511 1.4285712,1.4285718 0 0 1 4.13866,6.14051 1.4285712,1.4285718 0 0 1 4.03715,6.05621 1.4285712,1.4285718 0 0 1 3.94385,5.96291 1.4285712,1.4285718 0 0 1 3.85955,5.86141 1.4285712,1.4285718 0 0 1 3.78495,5.75255 1.4285712,1.4285718 0 0 1 3.72075,5.63728 1.4285712,1.4285718 0 0 1 3.66745,5.51654 1.4285712,1.4285718 0 0 1 3.62555,5.39145 1.4285712,1.4285718 0 0 1 3.59535,5.26299 1.4285712,1.4285718 0 0 1 3.57715,5.13229 1.4285712,1.4285718 0 0 1 3.57115,5.00048 1.4285712,1.4285718 0 0 1 3.57715,4.86867 1.4285712,1.4285718 0 0 1 3.59535,4.738 a 1.4285712,1.4285718 0 0 1 0.0302,-0.12846 1.4285712,1.4285718 0 0 1 0.0419,-0.12509 1.4285712,1.4285718 0 0 1 0.0533,-0.12074 1.4285712,1.4285718 0 0 1 0.0642,-0.11527 1.4285712,1.4285718 0 0 1 0.0746,-0.10886 1.4285712,1.4285718 0 0 1 0.0843,-0.1015 1.4285712,1.4285718 0 0 1 0.0933,-0.0933 1.4285712,1.4285718 0 0 1 0.10151,-0.0843 1.4285712,1.4285718 0 0 1 0.10885,-0.0746 1.4285712,1.4285718 0 0 1 0.11528,-0.0642 1.4285712,1.4285718 0 0 1 0.1207,-0.0533 1.4285712,1.4285718 0 0 1 0.12513,-0.042 1.4285712,1.4285718 0 0 1 0.12845,-0.0302 1.4285712,1.4285718 0 0 1 0.13067,-0.0182 1.4285712,1.4285718 0 0 1 0.13181,-0.006 1.4285712,1.4285718 0 0 1 0.0449,7.1e-4 1.4285712,1.4285718 0 0 1 0.0448,0.002 1.4285712,1.4285718 0 0 1 0.0447,0.004 1.4285712,1.4285718 0 0 1 0.0446,0.005 1.4285712,1.4285718 0 0 1 0.0444,0.006 1.4285712,1.4285718 0 0 1 0.0442,0.008 1.4285712,1.4285718 0 0 1 0.044,0.009 1.4285712,1.4285718 0 0 1 0.0436,0.0105 1.4285712,1.4285718 0 0 1 0.0433,0.0118 1.4285712,1.4285718 0 0 1 0.0429,0.0132 1.4285712,1.4285718 0 0 1 0.0424,0.0146 1.4285712,1.4285718 0 0 1 0.042,0.0159 1.4285712,1.4285718 0 0 1 0.0415,0.0172 1.4285712,1.4285718 0 0 1 0.0409,0.0185 1.4285712,1.4285718 0 0 1 0.0403,0.0197 1.4285712,1.4285718 0 0 1 0.0396,0.021 1.4285712,1.4285718 0 0 1 0.039,0.0223 1.4285712,1.4285718 0 0 1 0.0383,0.0234 1.4285712,1.4285718 0 0 1 0.0375,0.0246 1.4285712,1.4285718 0 0 1 0.0367,0.0258 1.4285712,1.4285718 0 0 1 0.0359,0.0269 1.4285712,1.4285718 0 0 1 0.035,0.0281 1.4285712,1.4285718 0 0 1 0.0341,0.0291 1.4285712,1.4285718 0 0 1 0.0332,0.0302 1.4285712,1.4285718 0 0 1 0.0322,0.0312 l 0.4184,-0.41843 0.0854,-0.0854 0.50617,-0.50617 a 2.8571424,2.8571436 0 0 1 0.004,0.004 L 7.52858,2.47963 A 3.571428,3.5714295 0 0 0 5.00493,1.43181 Z m -0.006,0.71188 a 2.8571424,2.8571436 0 0 1 0.0787,10e-4 2.8571424,2.8571436 0 0 1 0.0787,0.003 2.8571424,2.8571436 0 0 1 0.0786,0.005 2.8571424,2.8571436 0 0 1 0.0784,0.008 2.8571424,2.8571436 0 0 1 0.0781,0.01 2.8571424,2.8571436 0 0 1 0.0778,0.0119 2.8571424,2.8571436 0 0 1 0.0774,0.014 2.8571424,2.8571436 0 0 1 0.0771,0.0162 2.8571424,2.8571436 0 0 1 0.0766,0.0183 2.8571424,2.8571436 0 0 1 0.076,0.0204 2.8571424,2.8571436 0 0 1 0.0755,0.0225 2.8571424,2.8571436 0 0 1 0.0748,0.0245 2.8571424,2.8571436 0 0 1 0.0741,0.0266 2.8571424,2.8571436 0 0 1 0.0734,0.0286 2.8571424,2.8571436 0 0 1 0.0725,0.0306 2.8571424,2.8571436 0 0 1 0.0717,0.0326 2.8571424,2.8571436 0 0 1 0.0707,0.0346 2.8571424,2.8571436 0 0 1 0.0698,0.0365 2.8571424,2.8571436 0 0 1 0.0687,0.0384 2.8571424,2.8571436 0 0 1 0.0223,0.0133 L 5.923,3.06631 5.928,3.07131 A 2.1428569,2.1428578 0 0 0 4.99982,2.8574 2.1428569,2.1428578 0 0 0 2.85698,5.00024 2.1428569,2.1428578 0 0 0 4.99982,7.14312 2.1428569,2.1428578 0 0 0 5.92549,6.93172 l -0.002,0.002 0.52585,0.52585 a 2.8571424,2.8571436 0 0 1 -0.0895,0.0533 2.8571424,2.8571436 0 0 1 -0.21216,0.10372 2.8571424,2.8571436 0 0 1 -0.22,0.0858 2.8571424,2.8571436 0 0 1 -0.2263,0.0674 2.8571424,2.8571436 0 0 1 -0.23111,0.0484 2.8571424,2.8571436 0 0 1 -0.23435,0.0292 2.8571424,2.8571436 0 0 1 -0.23594,0.01 2.8571424,2.8571436 0 0 1 -0.23594,-0.01 A 2.8571424,2.8571436 0 0 1 4.52972,7.81819 2.8571424,2.8571436 0 0 1 4.29858,7.76979 2.8571424,2.8571436 0 0 1 4.07228,7.70239 2.8571424,2.8571436 0 0 1 3.85228,7.61659 2.8571424,2.8571436 0 0 1 3.64015,7.51287 2.8571424,2.8571436 0 0 1 3.43728,7.39198 2.8571424,2.8571436 0 0 1 3.24508,7.25478 2.8571424,2.8571436 0 0 1 3.06488,7.10215 2.8571424,2.8571436 0 0 1 2.89793,6.93516 2.8571424,2.8571436 0 0 1 2.7453,6.75496 2.8571424,2.8571436 0 0 1 2.6081,6.5628 2.8571424,2.8571436 0 0 1 2.48721,6.35993 2.8571424,2.8571436 0 0 1 2.38349,6.1478 2.8571424,2.8571436 0 0 1 2.29759,5.9278 2.8571424,2.8571436 0 0 1 2.23019,5.70146 2.8571424,2.8571436 0 0 1 2.18169,5.47035 2.8571424,2.8571436 0 0 1 2.15249,5.236 2.8571424,2.8571436 0 0 1 2.14249,5.00006 2.8571424,2.8571436 0 0 1 2.15249,4.76412 2.8571424,2.8571436 0 0 1 2.18169,4.52981 2.8571424,2.8571436 0 0 1 2.23019,4.2987 2.8571424,2.8571436 0 0 1 2.29759,4.07236 2.8571424,2.8571436 0 0 1 2.38349,3.85237 2.8571424,2.8571436 0 0 1 2.48721,3.64023 2.8571424,2.8571436 0 0 1 2.6081,3.43737 2.8571424,2.8571436 0 0 1 2.7453,3.24517 2.8571424,2.8571436 0 0 1 2.89793,3.065 2.8571424,2.8571436 0 0 1 3.06488,2.89801 2.8571424,2.8571436 0 0 1 3.24508,2.74538 2.8571424,2.8571436 0 0 1 3.43728,2.60818 2.8571424,2.8571436 0 0 1 3.64015,2.48729 2.8571424,2.8571436 0 0 1 3.85228,2.38357 a 2.8571424,2.8571436 0 0 1 0.22,-0.0858 2.8571424,2.8571436 0 0 1 0.2263,-0.0674 2.8571424,2.8571436 0 0 1 0.23114,-0.0485 2.8571424,2.8571436 0 0 1 0.23432,-0.0292 2.8571424,2.8571436 0 0 1 0.23594,-0.01 z" />
</svg>
