<?xml version="1.0" encoding="UTF-8" standalone="no"?>
<!-- Created with Inkscape (http://www.inkscape.org/) -->

<svg
   width="9.9999981mm"
   height="10.000003mm"
   viewBox="0 0 9.9999978 10.000003"
   version="1.1"
   id="svg8307"
   xmlns="http://www.w3.org/2000/svg"
   xmlns:svg="http://www.w3.org/2000/svg">
  <defs
     id="defs8304" />
  <g
     id="layer1"
     transform="translate(-62.869197,-147.86033)">
    <path
       id="path5555-9"
       style="fill:#000000;fill-opacity:1;stroke:none;stroke-width:0.00714286;stroke-dasharray:none;stroke-opacity:1;stop-color:#000000"
       d="m 67.874727,149.29133 a 3.571428,3.5714295 0 0 0 -3.571394,3.57143 3.571428,3.5714295 0 0 0 3.571394,3.57144 3.571428,3.5714295 0 0 0 2.525206,-1.04627 l -0.5106,-0.51056 a 2.8571424,2.8571436 0 0 1 -0.0015,0.002 l -0.503329,-0.50333 -0.08667,-0.0867 -0.419502,-0.4195 a 1.4285712,1.4285718 0 0 1 -0.04666,0.0467 1.4285712,1.4285718 0 0 1 -0.101508,0.0843 1.4285712,1.4285718 0 0 1 -0.108889,0.0746 1.4285712,1.4285718 0 0 1 -0.115276,0.0642 1.4285712,1.4285718 0 0 1 -0.120701,0.0533 1.4285712,1.4285718 0 0 1 -0.125094,0.0419 1.4285712,1.4285718 0 0 1 -0.128453,0.0302 1.4285712,1.4285718 0 0 1 -0.130704,0.0182 1.4285712,1.4285718 0 0 1 -0.131812,0.006 1.4285712,1.4285718 0 0 1 -0.131811,-0.006 1.4285712,1.4285718 0 0 1 -0.130668,-0.0182 1.4285712,1.4285718 0 0 1 -0.128453,-0.0302 1.4285712,1.4285718 0 0 1 -0.125131,-0.0419 1.4285712,1.4285718 0 0 1 -0.120701,-0.0533 1.4285712,1.4285718 0 0 1 -0.115275,-0.0642 1.4285712,1.4285718 0 0 1 -0.108853,-0.0746 1.4285712,1.4285718 0 0 1 -0.101507,-0.0843 1.4285712,1.4285718 0 0 1 -0.09331,-0.0933 1.4285712,1.4285718 0 0 1 -0.08431,-0.1015 1.4285712,1.4285718 0 0 1 -0.07456,-0.10886 1.4285712,1.4285718 0 0 1 -0.06423,-0.11527 1.4285712,1.4285718 0 0 1 -0.0533,-0.12074 1.4285712,1.4285718 0 0 1 -0.04193,-0.12509 1.4285712,1.4285718 0 0 1 -0.03019,-0.12846 1.4285712,1.4285718 0 0 1 -0.01823,-0.1307 1.4285712,1.4285718 0 0 1 -0.0061,-0.13181 1.4285712,1.4285718 0 0 1 0.0061,-0.13181 1.4285712,1.4285718 0 0 1 0.01823,-0.13067 1.4285712,1.4285718 0 0 1 0.03019,-0.12846 1.4285712,1.4285718 0 0 1 0.04193,-0.12509 1.4285712,1.4285718 0 0 1 0.0533,-0.12074 1.4285712,1.4285718 0 0 1 0.06423,-0.11527 1.4285712,1.4285718 0 0 1 0.07456,-0.10886 1.4285712,1.4285718 0 0 1 0.08431,-0.1015 1.4285712,1.4285718 0 0 1 0.09331,-0.0933 1.4285712,1.4285718 0 0 1 0.101507,-0.0843 1.4285712,1.4285718 0 0 1 0.108853,-0.0746 1.4285712,1.4285718 0 0 1 0.115275,-0.0642 1.4285712,1.4285718 0 0 1 0.120701,-0.0533 1.4285712,1.4285718 0 0 1 0.125131,-0.042 1.4285712,1.4285718 0 0 1 0.128453,-0.0302 1.4285712,1.4285718 0 0 1 0.130668,-0.0182 1.4285712,1.4285718 0 0 1 0.131811,-0.006 1.4285712,1.4285718 0 0 1 0.04488,7.1e-4 1.4285712,1.4285718 0 0 1 0.04481,0.002 1.4285712,1.4285718 0 0 1 0.04474,0.004 1.4285712,1.4285718 0 0 1 0.04463,0.005 1.4285712,1.4285718 0 0 1 0.04444,0.006 1.4285712,1.4285718 0 0 1 0.04418,0.008 1.4285712,1.4285718 0 0 1 0.04396,0.009 1.4285712,1.4285718 0 0 1 0.04363,0.0105 1.4285712,1.4285718 0 0 1 0.0433,0.0118 1.4285712,1.4285718 0 0 1 0.04289,0.0132 1.4285712,1.4285718 0 0 1 0.04245,0.0146 1.4285712,1.4285718 0 0 1 0.04197,0.0159 1.4285712,1.4285718 0 0 1 0.04149,0.0172 1.4285712,1.4285718 0 0 1 0.0409,0.0185 1.4285712,1.4285718 0 0 1 0.04031,0.0197 1.4285712,1.4285718 0 0 1 0.03964,0.021 1.4285712,1.4285718 0 0 1 0.03898,0.0223 1.4285712,1.4285718 0 0 1 0.03828,0.0234 1.4285712,1.4285718 0 0 1 0.0375,0.0246 1.4285712,1.4285718 0 0 1 0.03673,0.0258 1.4285712,1.4285718 0 0 1 0.03588,0.0269 1.4285712,1.4285718 0 0 1 0.03503,0.028 1.4285712,1.4285718 0 0 1 0.03411,0.0291 1.4285712,1.4285718 0 0 1 0.03322,0.0302 1.4285712,1.4285718 0 0 1 0.03222,0.0312 l 0.418395,-0.41843 0.08538,-0.0854 0.50617,-0.50617 a 2.8571424,2.8571436 0 0 1 0.004,0.004 l 0.505063,-0.50506 a 3.571428,3.5714295 0 0 0 -2.523655,-1.04782 z m -0.0055,0.71188 a 2.8571424,2.8571436 0 0 1 0.07873,0.001 2.8571424,2.8571436 0 0 1 0.07866,0.003 2.8571424,2.8571436 0 0 1 0.07855,0.005 2.8571424,2.8571436 0 0 1 0.07836,0.008 2.8571424,2.8571436 0 0 1 0.07814,0.01 2.8571424,2.8571436 0 0 1 0.07785,0.0119 2.8571424,2.8571436 0 0 1 0.07744,0.014 2.8571424,2.8571436 0 0 1 0.07707,0.0162 2.8571424,2.8571436 0 0 1 0.07659,0.0183 2.8571424,2.8571436 0 0 1 0.07604,0.0204 2.8571424,2.8571436 0 0 1 0.07549,0.0225 2.8571424,2.8571436 0 0 1 0.07478,0.0245 2.8571424,2.8571436 0 0 1 0.07412,0.0266 2.8571424,2.8571436 0 0 1 0.07334,0.0286 2.8571424,2.8571436 0 0 1 0.07253,0.0306 2.8571424,2.8571436 0 0 1 0.07168,0.0326 2.8571424,2.8571436 0 0 1 0.07072,0.0346 2.8571424,2.8571436 0 0 1 0.06976,0.0365 2.8571424,2.8571436 0 0 1 0.06873,0.0384 2.8571424,2.8571436 0 0 1 0.02233,0.0133 l -0.527431,0.52743 0.0047,0.005 a 2.1428569,2.1428578 0 0 0 -0.928182,-0.21391 2.1428569,2.1428578 0 0 0 -2.142837,2.14284 2.1428569,2.1428578 0 0 0 2.142837,2.14288 2.1428569,2.1428578 0 0 0 0.925672,-0.2114 l -0.0022,0.002 0.525844,0.52585 a 2.8571424,2.8571436 0 0 1 -0.08947,0.0533 2.8571424,2.8571436 0 0 1 -0.212168,0.10372 2.8571424,2.8571436 0 0 1 -0.219994,0.0858 2.8571424,2.8571436 0 0 1 -0.226306,0.0674 2.8571424,2.8571436 0 0 1 -0.231104,0.0484 2.8571424,2.8571436 0 0 1 -0.234353,0.0292 2.8571424,2.8571436 0 0 1 -0.23594,0.01 2.8571424,2.8571436 0 0 1 -0.235939,-0.01 2.8571424,2.8571436 0 0 1 -0.234316,-0.0292 2.8571424,2.8571436 0 0 1 -0.231141,-0.0484 2.8571424,2.8571436 0 0 1 -0.226306,-0.0674 2.8571424,2.8571436 0 0 1 -0.219994,-0.0858 2.8571424,2.8571436 0 0 1 -0.212132,-0.10372 2.8571424,2.8571436 0 0 1 -0.202867,-0.12089 2.8571424,2.8571436 0 0 1 -0.192199,-0.1372 2.8571424,2.8571436 0 0 1 -0.180204,-0.15263 2.8571424,2.8571436 0 0 1 -0.166951,-0.16699 2.8571424,2.8571436 0 0 1 -0.15263,-0.1802 2.8571424,2.8571436 0 0 1 -0.137201,-0.19216 2.8571424,2.8571436 0 0 1 -0.120886,-0.20287 2.8571424,2.8571436 0 0 1 -0.103722,-0.21213 2.8571424,2.8571436 0 0 1 -0.08586,-0.22 2.8571424,2.8571436 0 0 1 -0.06736,-0.22634 2.8571424,2.8571436 0 0 1 -0.04847,-0.23111 2.8571424,2.8571436 0 0 1 -0.0292,-0.23435 2.8571424,2.8571436 0 0 1 -0.0098,-0.23594 2.8571424,2.8571436 0 0 1 0.0098,-0.23594 2.8571424,2.8571436 0 0 1 0.0292,-0.23431 2.8571424,2.8571436 0 0 1 0.04847,-0.23111 2.8571424,2.8571436 0 0 1 0.06736,-0.22634 2.8571424,2.8571436 0 0 1 0.08586,-0.21999 2.8571424,2.8571436 0 0 1 0.103722,-0.21214 2.8571424,2.8571436 0 0 1 0.120886,-0.20286 2.8571424,2.8571436 0 0 1 0.137201,-0.1922 2.8571424,2.8571436 0 0 1 0.15263,-0.18017 2.8571424,2.8571436 0 0 1 0.166951,-0.16699 2.8571424,2.8571436 0 0 1 0.180204,-0.15263 2.8571424,2.8571436 0 0 1 0.192199,-0.1372 2.8571424,2.8571436 0 0 1 0.202867,-0.12089 2.8571424,2.8571436 0 0 1 0.212132,-0.10372 2.8571424,2.8571436 0 0 1 0.219994,-0.0858 2.8571424,2.8571436 0 0 1 0.226306,-0.0674 2.8571424,2.8571436 0 0 1 0.231141,-0.0485 2.8571424,2.8571436 0 0 1 0.234316,-0.0292 2.8571424,2.8571436 0 0 1 0.235939,-0.01 z" />
  </g>
</svg>
