<?xml version="1.0" encoding="UTF-8" standalone="no"?>
<!-- Created with Inkscape (http://www.inkscape.org/) -->

<svg
   width="9.9999981mm"
   height="10mm"
   viewBox="0 0 9.9999981 10"
   version="1.1"
   id="svg8307"
   sodipodi:docname="cko.svg"
   inkscape:version="1.2.1 (9c6d41e410, 2022-07-14)"
   xmlns:inkscape="http://www.inkscape.org/namespaces/inkscape"
   xmlns:sodipodi="http://sodipodi.sourceforge.net/DTD/sodipodi-0.dtd"
   xmlns="http://www.w3.org/2000/svg"
   xmlns:svg="http://www.w3.org/2000/svg">
  <sodipodi:namedview
     id="namedview1506"
     pagecolor="#ffffff"
     bordercolor="#111111"
     borderopacity="1"
     inkscape:showpageshadow="0"
     inkscape:pageopacity="0"
     inkscape:pagecheckerboard="1"
     inkscape:deskcolor="#d1d1d1"
     inkscape:document-units="mm"
     showgrid="false"
     inkscape:zoom="6.2441667"
     inkscape:cx="18.977713"
     inkscape:cy="18.897638"
     inkscape:window-width="4498"
     inkscape:window-height="1488"
     inkscape:window-x="0"
     inkscape:window-y="20"
     inkscape:window-maximized="1"
     inkscape:current-layer="svg8307" />
  <defs
     id="defs8304" />
  <path
     id="path1379"
     style="fill:#000000;fill-opacity:1;stroke:#000000;stroke-width:0.00714282;stroke-dasharray:none;stroke-opacity:1;stop-color:#000000"
     d="M 7.98174,3.0284 6.93649,4.07367 a 2.1428371,2.1428554 0 0 1 0.01,0.0204 2.1428371,2.1428554 0 0 1 0.0227,0.0503 2.1428371,2.1428554 0 0 1 0.0214,0.0508 2.1428371,2.1428554 0 0 1 0.0201,0.0514 2.1428371,2.1428554 0 0 1 0.0188,0.0519 2.1428371,2.1428554 0 0 1 0.0174,0.0524 2.1428371,2.1428554 0 0 1 0.0161,0.0528 2.1428371,2.1428554 0 0 1 0.0147,0.0532 2.1428371,2.1428554 0 0 1 0.0134,0.0535 2.1428371,2.1428554 0 0 1 0.012,0.0539 2.1428371,2.1428554 0 0 1 0.0106,0.0541 2.1428371,2.1428554 0 0 1 0.009,0.0544 2.1428371,2.1428554 0 0 1 0.008,0.0546 2.1428371,2.1428554 0 0 1 0.006,0.0548 2.1428371,2.1428554 0 0 1 0.005,0.055 2.1428371,2.1428554 0 0 1 0.004,0.0551 2.1428371,2.1428554 0 0 1 0.002,0.0551 2.1428371,2.1428554 0 0 1 7.1e-4,0.0552 A 2.1428371,2.1428554 0 0 1 7.1424,5.16269 2.1428371,2.1428554 0 0 1 7.1245,5.32193 2.1428371,2.1428554 0 0 1 7.0947,5.47939 2.1428371,2.1428554 0 0 1 7.0532,5.63416 2.1428371,2.1428554 0 0 1 7.0003,5.78543 2.1428371,2.1428554 0 0 1 6.9381,5.92787 L 7.98362,6.97336 A 3.571395,3.5714255 0 0 0 8.57708,5.00242 3.571395,3.5714255 0 0 0 7.98181,3.02838 Z" />
  <path
     id="path3747-9-0"
     style="fill:#000000;fill-opacity:1;stroke:none;stroke-width:0.00714282;stroke-dasharray:none;stroke-opacity:1;stop-color:#000000"
     d="M 7.53077,7.52758 6.52062,6.51746 a 2.1428379,2.1428554 0 0 1 -0.0243,0.0243 2.1428379,2.1428554 0 0 1 -0.0501,0.047 2.1428379,2.1428554 0 0 1 -0.0516,0.0454 2.1428379,2.1428554 0 0 1 -0.053,0.0437 2.1428379,2.1428554 0 0 1 -0.0544,0.042 2.1428379,2.1428554 0 0 1 -0.0557,0.0402 2.1428379,2.1428554 0 0 1 -0.057,0.0384 2.1428379,2.1428554 0 0 1 -0.0582,0.0366 2.1428379,2.1428554 0 0 1 -0.0593,0.0347 2.1428379,2.1428554 0 0 1 -0.0604,0.0327 2.1428379,2.1428554 0 0 1 -0.0614,0.0308 2.1428379,2.1428554 0 0 1 -0.0623,0.0288 2.1428379,2.1428554 0 0 1 -0.0633,0.0268 2.1428379,2.1428554 0 0 1 -0.0641,0.0247 2.1428379,2.1428554 0 0 1 -0.0648,0.0227 2.1428379,2.1428554 0 0 1 -0.0656,0.0206 2.1428379,2.1428554 0 0 1 -0.0661,0.0185 2.1428379,2.1428554 0 0 1 -0.0667,0.0164 2.1428379,2.1428554 0 0 1 -0.0672,0.0142 2.1428379,2.1428554 0 0 1 -0.0676,0.012 2.1428379,2.1428554 0 0 1 -0.068,0.01 2.1428379,2.1428554 0 0 1 -0.0683,0.008 2.1428379,2.1428554 0 0 1 -0.0685,0.006 2.1428379,2.1428554 0 0 1 -0.0686,0.003 2.1428379,2.1428554 0 0 1 -0.0687,10e-4 2.1428379,2.1428554 0 0 1 -0.1977,-0.009 A 2.1428379,2.1428554 0 0 1 4.61168,7.10956 2.1428379,2.1428554 0 0 1 4.419,7.06426 2.1428379,2.1428554 0 0 1 4.23134,7.00136 2.1428379,2.1428554 0 0 1 4.05029,6.92146 2.1428379,2.1428554 0 0 1 3.87737,6.82516 2.1428379,2.1428554 0 0 1 3.71407,6.71332 2.1428379,2.1428554 0 0 1 3.56181,6.58686 2.1428379,2.1428554 0 0 1 3.42184,6.44689 2.1428379,2.1428554 0 0 1 3.29542,6.29463 2.1428379,2.1428554 0 0 1 3.18354,6.13133 2.1428379,2.1428554 0 0 1 3.08724,5.95844 2.1428379,2.1428554 0 0 1 3.00724,5.77735 2.1428379,2.1428554 0 0 1 2.94434,5.58969 2.1428379,2.1428554 0 0 1 2.89904,5.39701 2.1428379,2.1428554 0 0 1 2.87174,5.20097 2.1428379,2.1428554 0 0 1 2.86274,5.00327 2.1428379,2.1428554 0 0 1 2.87174,4.80554 2.1428379,2.1428554 0 0 1 2.89904,4.60953 2.1428379,2.1428554 0 0 1 2.94434,4.41686 2.1428379,2.1428554 0 0 1 3.00724,4.2292 2.1428379,2.1428554 0 0 1 3.08724,4.04811 2.1428379,2.1428554 0 0 1 3.18354,3.87521 2.1428379,2.1428554 0 0 1 3.29542,3.71191 2.1428379,2.1428554 0 0 1 3.42184,3.55962 2.1428379,2.1428554 0 0 1 3.56181,3.41969 2.1428379,2.1428554 0 0 1 3.71407,3.29323 2.1428379,2.1428554 0 0 1 3.87737,3.18138 2.1428379,2.1428554 0 0 1 4.05029,3.08508 2.1428379,2.1428554 0 0 1 4.23134,3.00518 2.1428379,2.1428554 0 0 1 4.419,2.94228 a 2.1428379,2.1428554 0 0 1 0.19268,-0.0453 2.1428379,2.1428554 0 0 1 0.19604,-0.0274 2.1428379,2.1428554 0 0 1 0.1977,-0.009 2.1428379,2.1428554 0 0 1 0.19772,0.009 2.1428379,2.1428554 0 0 1 0.19604,0.0274 2.1428379,2.1428554 0 0 1 0.19268,0.0453 2.1428379,2.1428554 0 0 1 0.18766,0.0629 2.1428379,2.1428554 0 0 1 0.18105,0.0799 2.1428379,2.1428554 0 0 1 0.17293,0.0963 2.1428379,2.1428554 0 0 1 0.16329,0.11185 2.1428379,2.1428554 0 0 1 0.15226,0.12646 2.1428379,2.1428554 0 0 1 0.07,0.07 l 1.01,-1.01002 A 3.5713964,3.5714254 0 0 0 5.00543,1.43186 3.5713964,3.5714254 0 0 0 1.43406,5.00329 3.5713964,3.5714254 0 0 0 5.00543,8.57472 3.5713964,3.5714254 0 0 0 7.53061,7.52846 Z" />
  <ellipse
     style="fill:#000000;fill-opacity:1;stroke:#000000;stroke-width:0.00714282;stroke-dasharray:none;stroke-opacity:1;stop-color:#000000"
     id="path3832-9"
     cx="4.9944458"
     cy="4.9975891"
     rx="0.71427935"
     ry="0.71428502" />
</svg>
