<?xml version="1.0" encoding="UTF-8" standalone="no"?>
<!-- Created with Inkscape (http://www.inkscape.org/) -->

<svg
   width="9.9999981mm"
   height="10mm"
   viewBox="0 0 9.9999981 10"
   version="1.1"
   id="svg8307"
   sodipodi:docname="co.svg"
   inkscape:version="1.2.1 (9c6d41e410, 2022-07-14)"
   xmlns:inkscape="http://www.inkscape.org/namespaces/inkscape"
   xmlns:sodipodi="http://sodipodi.sourceforge.net/DTD/sodipodi-0.dtd"
   xmlns="http://www.w3.org/2000/svg"
   xmlns:svg="http://www.w3.org/2000/svg">
  <sodipodi:namedview
     id="namedview1506"
     pagecolor="#ffffff"
     bordercolor="#111111"
     borderopacity="1"
     inkscape:showpageshadow="0"
     inkscape:pageopacity="0"
     inkscape:pagecheckerboard="1"
     inkscape:deskcolor="#d1d1d1"
     inkscape:document-units="mm"
     showgrid="false"
     inkscape:zoom="6.2441667"
     inkscape:cx="18.977713"
     inkscape:cy="7.3668758"
     inkscape:window-width="4498"
     inkscape:window-height="1488"
     inkscape:window-x="0"
     inkscape:window-y="20"
     inkscape:window-maximized="1"
     inkscape:current-layer="svg8307" />
  <defs
     id="defs8304" />
  <path
     id="path5555-5"
     style="fill:#000000;fill-opacity:1;stroke:none;stroke-width:0.00714286;stroke-dasharray:none;stroke-opacity:1;stop-color:#000000"
     d="M 5.00554,1.431 A 3.571428,3.571429 0 0 0 1.43414,5.00243 3.571428,3.571429 0 0 0 5.00554,8.57386 3.571428,3.571429 0 0 0 7.53074,7.5276 L 7.02014,7.01703 a 2.8571424,2.8571432 0 0 1 -0.085,0.085 2.8571424,2.8571432 0 0 1 -0.1802,0.15263 2.8571424,2.8571432 0 0 1 -0.19217,0.1372 2.8571424,2.8571432 0 0 1 -0.20286,0.12089 2.8571424,2.8571432 0 0 1 -0.21217,0.10372 2.8571424,2.8571432 0 0 1 -0.22,0.0858 2.8571424,2.8571432 0 0 1 -0.2263,0.0674 2.8571424,2.8571432 0 0 1 -0.23111,0.0484 2.8571424,2.8571432 0 0 1 -0.23435,0.0292 2.8571424,2.8571432 0 0 1 -0.23594,0.01 A 2.8571424,2.8571432 0 0 1 4.7641,7.84727 2.8571424,2.8571432 0 0 1 4.52979,7.81807 2.8571424,2.8571432 0 0 1 4.29864,7.76967 2.8571424,2.8571432 0 0 1 4.07234,7.70227 2.8571424,2.8571432 0 0 1 3.85234,7.61647 2.8571424,2.8571432 0 0 1 3.64021,7.51275 2.8571424,2.8571432 0 0 1 3.43735,7.39186 2.8571424,2.8571432 0 0 1 3.24515,7.25466 2.8571424,2.8571432 0 0 1 3.06494,7.10203 2.8571424,2.8571432 0 0 1 2.89799,6.93504 2.8571424,2.8571432 0 0 1 2.74536,6.75484 2.8571424,2.8571432 0 0 1 2.60816,6.56267 2.8571424,2.8571432 0 0 1 2.48727,6.35981 2.8571424,2.8571432 0 0 1 2.38355,6.14768 2.8571424,2.8571432 0 0 1 2.29775,5.92768 2.8571424,2.8571432 0 0 1 2.23035,5.70134 2.8571424,2.8571432 0 0 1 2.18185,5.47023 2.8571424,2.8571432 0 0 1 2.15265,5.23588 2.8571424,2.8571432 0 0 1 2.14265,4.99994 2.8571424,2.8571432 0 0 1 2.15265,4.764 2.8571424,2.8571432 0 0 1 2.18185,4.52969 2.8571424,2.8571432 0 0 1 2.23035,4.29858 2.8571424,2.8571432 0 0 1 2.29775,4.07224 2.8571424,2.8571432 0 0 1 2.38355,3.85225 2.8571424,2.8571432 0 0 1 2.48727,3.64011 2.8571424,2.8571432 0 0 1 2.60816,3.43725 2.8571424,2.8571432 0 0 1 2.74536,3.24505 2.8571424,2.8571432 0 0 1 2.89799,3.06488 2.8571424,2.8571432 0 0 1 3.06494,2.89789 2.8571424,2.8571432 0 0 1 3.24515,2.74526 2.8571424,2.8571432 0 0 1 3.43735,2.60806 2.8571424,2.8571432 0 0 1 3.64021,2.48717 2.8571424,2.8571432 0 0 1 3.85234,2.38345 a 2.8571424,2.8571432 0 0 1 0.22,-0.0858 2.8571424,2.8571432 0 0 1 0.2263,-0.0674 2.8571424,2.8571432 0 0 1 0.23115,-0.0485 2.8571424,2.8571432 0 0 1 0.23431,-0.0292 2.8571424,2.8571432 0 0 1 0.23594,-0.01 2.8571424,2.8571432 0 0 1 0.0787,10e-4 2.8571424,2.8571432 0 0 1 0.0787,0.003 2.8571424,2.8571432 0 0 1 0.0786,0.005 2.8571424,2.8571432 0 0 1 0.0784,0.008 2.8571424,2.8571432 0 0 1 0.0781,0.01 2.8571424,2.8571432 0 0 1 0.0778,0.0119 2.8571424,2.8571432 0 0 1 0.0774,0.014 2.8571424,2.8571432 0 0 1 0.0771,0.0162 2.8571424,2.8571432 0 0 1 0.0766,0.0183 2.8571424,2.8571432 0 0 1 0.076,0.0204 2.8571424,2.8571432 0 0 1 0.0755,0.0225 2.8571424,2.8571432 0 0 1 0.0748,0.0245 2.8571424,2.8571432 0 0 1 0.0741,0.0266 2.8571424,2.8571432 0 0 1 0.0734,0.0286 2.8571424,2.8571432 0 0 1 0.0725,0.0306 2.8571424,2.8571432 0 0 1 0.0717,0.0326 2.8571424,2.8571432 0 0 1 0.0707,0.0346 2.8571424,2.8571432 0 0 1 0.0698,0.0365 2.8571424,2.8571432 0 0 1 0.0687,0.0384 2.8571424,2.8571432 0 0 1 0.0676,0.0403 2.8571424,2.8571432 0 0 1 0.0665,0.0422 2.8571424,2.8571432 0 0 1 0.0653,0.044 2.8571424,2.8571432 0 0 1 0.0641,0.0457 2.8571424,2.8571432 0 0 1 0.0628,0.0475 2.8571424,2.8571432 0 0 1 0.0614,0.0492 2.8571424,2.8571432 0 0 1 0.0601,0.0509 2.8571424,2.8571432 0 0 1 0.0587,0.0525 2.8571424,2.8571432 0 0 1 0.0572,0.0541 2.8571424,2.8571432 0 0 1 0.0319,0.0318 L 7.5293,2.47838 A 3.571428,3.571429 0 0 0 5.00565,1.43057 Z" />
  <path
     id="path5548-6"
     style="fill:#000000;fill-opacity:1;stroke:none;stroke-width:0.00714286;stroke-dasharray:none;stroke-opacity:1;stop-color:#000000"
     d="M 6.51394,3.48606 A 2.1428569,2.1428575 0 0 0 5,2.85716 2.1428569,2.1428575 0 0 0 2.85716,4.99999 2.1428569,2.1428575 0 0 0 5,7.14287 2.1428569,2.1428575 0 0 0 6.51526,6.51526 L 6.00909,6.00909 a 1.4285712,1.4285716 0 0 1 -0.0466,0.0466 1.4285712,1.4285716 0 0 1 -0.10151,0.0843 1.4285712,1.4285716 0 0 1 -0.10889,0.0746 1.4285712,1.4285716 0 0 1 -0.11528,0.0642 1.4285712,1.4285716 0 0 1 -0.1207,0.0533 1.4285712,1.4285716 0 0 1 -0.12509,0.0419 1.4285712,1.4285716 0 0 1 -0.12845,0.0302 1.4285712,1.4285716 0 0 1 -0.13071,0.0182 1.4285712,1.4285716 0 0 1 -0.13181,0.006 A 1.4285712,1.4285716 0 0 1 4.86824,6.42239 1.4285712,1.4285716 0 0 1 4.73757,6.40419 1.4285712,1.4285716 0 0 1 4.60912,6.37399 1.4285712,1.4285716 0 0 1 4.48399,6.33209 1.4285712,1.4285716 0 0 1 4.36329,6.27879 1.4285712,1.4285716 0 0 1 4.24801,6.21459 1.4285712,1.4285716 0 0 1 4.13916,6.13999 1.4285712,1.4285716 0 0 1 4.03765,6.05569 1.4285712,1.4285716 0 0 1 3.94435,5.96239 1.4285712,1.4285716 0 0 1 3.86005,5.86088 1.4285712,1.4285716 0 0 1 3.78545,5.75203 1.4285712,1.4285716 0 0 1 3.72125,5.63675 1.4285712,1.4285716 0 0 1 3.66795,5.51602 1.4285712,1.4285716 0 0 1 3.62605,5.39092 1.4285712,1.4285716 0 0 1 3.59585,5.26247 1.4285712,1.4285716 0 0 1 3.57765,5.13176 a 1.4285712,1.4285716 0 0 1 -0.006,-0.13181 1.4285712,1.4285716 0 0 1 0.006,-0.13181 1.4285712,1.4285716 0 0 1 0.0182,-0.13067 1.4285712,1.4285716 0 0 1 0.0302,-0.12845 1.4285712,1.4285716 0 0 1 0.0419,-0.12509 1.4285712,1.4285716 0 0 1 0.0533,-0.12074 1.4285712,1.4285716 0 0 1 0.0642,-0.11528 1.4285712,1.4285716 0 0 1 0.0746,-0.10885 1.4285712,1.4285716 0 0 1 0.0843,-0.10151 1.4285712,1.4285716 0 0 1 0.0933,-0.0933 1.4285712,1.4285716 0 0 1 0.10151,-0.0843 1.4285712,1.4285716 0 0 1 0.10885,-0.0746 1.4285712,1.4285716 0 0 1 0.11528,-0.0642 1.4285712,1.4285716 0 0 1 0.1207,-0.0533 1.4285712,1.4285716 0 0 1 0.12513,-0.042 1.4285712,1.4285716 0 0 1 0.12845,-0.0302 1.4285712,1.4285716 0 0 1 0.13067,-0.0182 1.4285712,1.4285716 0 0 1 0.13181,-0.006 1.4285712,1.4285716 0 0 1 0.0449,7.2e-4 1.4285712,1.4285716 0 0 1 0.0448,0.002 1.4285712,1.4285716 0 0 1 0.0447,0.004 1.4285712,1.4285716 0 0 1 0.0446,0.005 1.4285712,1.4285716 0 0 1 0.0444,0.006 1.4285712,1.4285716 0 0 1 0.0442,0.008 1.4285712,1.4285716 0 0 1 0.044,0.009 1.4285712,1.4285716 0 0 1 0.0436,0.0105 1.4285712,1.4285716 0 0 1 0.0433,0.0118 1.4285712,1.4285716 0 0 1 0.0429,0.0132 1.4285712,1.4285716 0 0 1 0.0424,0.0145 1.4285712,1.4285716 0 0 1 0.042,0.0159 1.4285712,1.4285716 0 0 1 0.0415,0.0172 1.4285712,1.4285716 0 0 1 0.0409,0.0185 1.4285712,1.4285716 0 0 1 0.0403,0.0197 1.4285712,1.4285716 0 0 1 0.0396,0.021 1.4285712,1.4285716 0 0 1 0.039,0.0223 1.4285712,1.4285716 0 0 1 0.0383,0.0234 1.4285712,1.4285716 0 0 1 0.0375,0.0246 1.4285712,1.4285716 0 0 1 0.0367,0.0258 1.4285712,1.4285716 0 0 1 0.0359,0.0269 1.4285712,1.4285716 0 0 1 0.035,0.0281 1.4285712,1.4285716 0 0 1 0.0341,0.0291 1.4285712,1.4285716 0 0 1 0.0332,0.0302 1.4285712,1.4285716 0 0 1 0.0322,0.0312 z" />
  <path
     id="path1379-8"
     style="fill:#000000;fill-opacity:1;stroke:#000000;stroke-width:0.00714282;stroke-dasharray:none;stroke-opacity:1;stop-color:#000000"
     d="M 7.98165,3.0284 6.9364,4.07367 a 2.1428371,2.1428554 0 0 1 0.01,0.0204 2.1428371,2.1428554 0 0 1 0.0227,0.0503 2.1428371,2.1428554 0 0 1 0.0214,0.0508 2.1428371,2.1428554 0 0 1 0.0201,0.0514 2.1428371,2.1428554 0 0 1 0.0188,0.0519 2.1428371,2.1428554 0 0 1 0.0174,0.0524 2.1428371,2.1428554 0 0 1 0.0161,0.0528 2.1428371,2.1428554 0 0 1 0.0147,0.0532 2.1428371,2.1428554 0 0 1 0.0134,0.0535 2.1428371,2.1428554 0 0 1 0.012,0.0539 2.1428371,2.1428554 0 0 1 0.0106,0.0541 2.1428371,2.1428554 0 0 1 0.009,0.0544 2.1428371,2.1428554 0 0 1 0.008,0.0546 2.1428371,2.1428554 0 0 1 0.006,0.0548 2.1428371,2.1428554 0 0 1 0.005,0.055 2.1428371,2.1428554 0 0 1 0.004,0.0551 2.1428371,2.1428554 0 0 1 0.002,0.0551 2.1428371,2.1428554 0 0 1 7.1e-4,0.0552 2.1428371,2.1428554 0 0 1 -0.006,0.16012 2.1428371,2.1428554 0 0 1 -0.0179,0.15924 2.1428371,2.1428554 0 0 1 -0.0298,0.15746 2.1428371,2.1428554 0 0 1 -0.0415,0.15477 2.1428371,2.1428554 0 0 1 -0.0529,0.15127 2.1428371,2.1428554 0 0 1 -0.0622,0.14244 L 7.98353,6.97336 A 3.571395,3.5714255 0 0 0 8.57699,5.00242 3.571395,3.5714255 0 0 0 7.98172,3.02838 Z" />
</svg>
