<?xml version="1.0" encoding="UTF-8" standalone="no"?>
<!-- Created with Inkscape (http://www.inkscape.org/) -->

<svg
   width="9.9999981mm"
   height="10.000001mm"
   viewBox="0 0 9.9999978 10.000001"
   version="1.1"
   id="svg8307"
   xmlns="http://www.w3.org/2000/svg"
   xmlns:svg="http://www.w3.org/2000/svg">
  <defs
     id="defs8304" />
  <g
     id="layer1"
     transform="translate(-61.195122,-152.30416)">
    <path
       id="path5555"
       style="fill:#000000;fill-opacity:1;stroke:none;stroke-width:0.00714286;stroke-dasharray:none;stroke-opacity:1;stop-color:#000000"
       d="m 66.200657,153.73516 a 3.571428,3.571429 0 0 0 -3.571394,3.57143 3.571428,3.571429 0 0 0 3.571394,3.57143 3.571428,3.571429 0 0 0 2.525206,-1.04626 l -0.5106,-0.51057 a 2.8571424,2.8571432 0 0 1 -0.08504,0.085 2.8571424,2.8571432 0 0 1 -0.180203,0.15263 2.8571424,2.8571432 0 0 1 -0.192163,0.1372 2.8571424,2.8571432 0 0 1 -0.202866,0.12089 2.8571424,2.8571432 0 0 1 -0.212169,0.10372 2.8571424,2.8571432 0 0 1 -0.219994,0.0858 2.8571424,2.8571432 0 0 1 -0.226306,0.0674 2.8571424,2.8571432 0 0 1 -0.231104,0.0484 2.8571424,2.8571432 0 0 1 -0.234353,0.0292 2.8571424,2.8571432 0 0 1 -0.23594,0.01 2.8571424,2.8571432 0 0 1 -0.235939,-0.01 2.8571424,2.8571432 0 0 1 -0.234316,-0.0292 2.8571424,2.8571432 0 0 1 -0.231141,-0.0484 2.8571424,2.8571432 0 0 1 -0.226306,-0.0674 2.8571424,2.8571432 0 0 1 -0.219994,-0.0858 2.8571424,2.8571432 0 0 1 -0.212131,-0.10372 2.8571424,2.8571432 0 0 1 -0.202867,-0.12089 2.8571424,2.8571432 0 0 1 -0.1922,-0.1372 2.8571424,2.8571432 0 0 1 -0.180203,-0.15263 2.8571424,2.8571432 0 0 1 -0.166952,-0.16699 2.8571424,2.8571432 0 0 1 -0.15263,-0.1802 2.8571424,2.8571432 0 0 1 -0.137201,-0.19217 2.8571424,2.8571432 0 0 1 -0.120886,-0.20286 2.8571424,2.8571432 0 0 1 -0.103722,-0.21213 2.8571424,2.8571432 0 0 1 -0.08586,-0.22 2.8571424,2.8571432 0 0 1 -0.06736,-0.22634 2.8571424,2.8571432 0 0 1 -0.04847,-0.23111 2.8571424,2.8571432 0 0 1 -0.0292,-0.23435 2.8571424,2.8571432 0 0 1 -0.0098,-0.23594 2.8571424,2.8571432 0 0 1 0.0098,-0.23594 2.8571424,2.8571432 0 0 1 0.0292,-0.23431 2.8571424,2.8571432 0 0 1 0.04847,-0.23111 2.8571424,2.8571432 0 0 1 0.06736,-0.22634 2.8571424,2.8571432 0 0 1 0.08586,-0.21999 2.8571424,2.8571432 0 0 1 0.103722,-0.21214 2.8571424,2.8571432 0 0 1 0.120886,-0.20286 2.8571424,2.8571432 0 0 1 0.137201,-0.1922 2.8571424,2.8571432 0 0 1 0.15263,-0.18017 2.8571424,2.8571432 0 0 1 0.166952,-0.16699 2.8571424,2.8571432 0 0 1 0.180203,-0.15263 2.8571424,2.8571432 0 0 1 0.1922,-0.1372 2.8571424,2.8571432 0 0 1 0.202867,-0.12089 2.8571424,2.8571432 0 0 1 0.212131,-0.10372 2.8571424,2.8571432 0 0 1 0.219994,-0.0858 2.8571424,2.8571432 0 0 1 0.226306,-0.0674 2.8571424,2.8571432 0 0 1 0.231141,-0.0485 2.8571424,2.8571432 0 0 1 0.234316,-0.0292 2.8571424,2.8571432 0 0 1 0.235939,-0.01 2.8571424,2.8571432 0 0 1 0.07873,0.001 2.8571424,2.8571432 0 0 1 0.07866,0.003 2.8571424,2.8571432 0 0 1 0.07855,0.005 2.8571424,2.8571432 0 0 1 0.07836,0.008 2.8571424,2.8571432 0 0 1 0.07814,0.01 2.8571424,2.8571432 0 0 1 0.07785,0.0119 2.8571424,2.8571432 0 0 1 0.07744,0.014 2.8571424,2.8571432 0 0 1 0.07707,0.0162 2.8571424,2.8571432 0 0 1 0.07659,0.0183 2.8571424,2.8571432 0 0 1 0.07604,0.0204 2.8571424,2.8571432 0 0 1 0.07549,0.0225 2.8571424,2.8571432 0 0 1 0.07478,0.0246 2.8571424,2.8571432 0 0 1 0.07412,0.0266 2.8571424,2.8571432 0 0 1 0.07334,0.0286 2.8571424,2.8571432 0 0 1 0.07253,0.0306 2.8571424,2.8571432 0 0 1 0.07168,0.0326 2.8571424,2.8571432 0 0 1 0.07072,0.0346 2.8571424,2.8571432 0 0 1 0.06976,0.0365 2.8571424,2.8571432 0 0 1 0.06873,0.0384 2.8571424,2.8571432 0 0 1 0.06762,0.0403 2.8571424,2.8571432 0 0 1 0.06651,0.0422 2.8571424,2.8571432 0 0 1 0.0653,0.044 2.8571424,2.8571432 0 0 1 0.06408,0.0457 2.8571424,2.8571432 0 0 1 0.06279,0.0475 2.8571424,2.8571432 0 0 1 0.06146,0.0492 2.8571424,2.8571432 0 0 1 0.06009,0.0509 2.8571424,2.8571432 0 0 1 0.05865,0.0525 2.8571424,2.8571432 0 0 1 0.05718,0.0541 2.8571424,2.8571432 0 0 1 0.03186,0.0318 l 0.505063,-0.50507 a 3.571428,3.571429 0 0 0 -2.523655,-1.04781 z" />
    <path
       id="path5548"
       style="fill:#000000;fill-opacity:1;stroke:none;stroke-width:0.00714286;stroke-dasharray:none;stroke-opacity:1;stop-color:#000000"
       d="m 67.709055,155.79022 a 2.1428569,2.1428575 0 0 0 -1.513935,-0.6289 2.1428569,2.1428575 0 0 0 -2.142837,2.14283 2.1428569,2.1428575 0 0 0 2.142837,2.14288 2.1428569,2.1428575 0 0 0 1.515264,-0.62761 l -0.50617,-0.50617 a 1.4285712,1.4285716 0 0 1 -0.04666,0.0466 1.4285712,1.4285716 0 0 1 -0.101508,0.0843 1.4285712,1.4285716 0 0 1 -0.108889,0.0746 1.4285712,1.4285716 0 0 1 -0.115276,0.0642 1.4285712,1.4285716 0 0 1 -0.120701,0.0533 1.4285712,1.4285716 0 0 1 -0.125093,0.0419 1.4285712,1.4285716 0 0 1 -0.128453,0.0302 1.4285712,1.4285716 0 0 1 -0.130705,0.0182 1.4285712,1.4285716 0 0 1 -0.131812,0.006 1.4285712,1.4285716 0 0 1 -0.131811,-0.006 1.4285712,1.4285716 0 0 1 -0.130668,-0.0182 1.4285712,1.4285716 0 0 1 -0.128453,-0.0302 1.4285712,1.4285716 0 0 1 -0.12513,-0.0419 1.4285712,1.4285716 0 0 1 -0.120702,-0.0533 1.4285712,1.4285716 0 0 1 -0.115275,-0.0642 1.4285712,1.4285716 0 0 1 -0.108853,-0.0746 1.4285712,1.4285716 0 0 1 -0.101507,-0.0843 1.4285712,1.4285716 0 0 1 -0.09331,-0.0933 1.4285712,1.4285716 0 0 1 -0.08431,-0.10151 1.4285712,1.4285716 0 0 1 -0.07456,-0.10885 1.4285712,1.4285716 0 0 1 -0.06423,-0.11528 1.4285712,1.4285716 0 0 1 -0.0533,-0.12073 1.4285712,1.4285716 0 0 1 -0.04193,-0.1251 1.4285712,1.4285716 0 0 1 -0.03019,-0.12845 1.4285712,1.4285716 0 0 1 -0.01823,-0.13071 1.4285712,1.4285716 0 0 1 -0.0061,-0.13181 1.4285712,1.4285716 0 0 1 0.0061,-0.13181 1.4285712,1.4285716 0 0 1 0.01823,-0.13067 1.4285712,1.4285716 0 0 1 0.03019,-0.12845 1.4285712,1.4285716 0 0 1 0.04193,-0.12509 1.4285712,1.4285716 0 0 1 0.0533,-0.12074 1.4285712,1.4285716 0 0 1 0.06423,-0.11528 1.4285712,1.4285716 0 0 1 0.07456,-0.10885 1.4285712,1.4285716 0 0 1 0.08431,-0.10151 1.4285712,1.4285716 0 0 1 0.09331,-0.0933 1.4285712,1.4285716 0 0 1 0.101507,-0.0843 1.4285712,1.4285716 0 0 1 0.108853,-0.0746 1.4285712,1.4285716 0 0 1 0.115275,-0.0642 1.4285712,1.4285716 0 0 1 0.120702,-0.0533 1.4285712,1.4285716 0 0 1 0.12513,-0.042 1.4285712,1.4285716 0 0 1 0.128453,-0.0302 1.4285712,1.4285716 0 0 1 0.130668,-0.0182 1.4285712,1.4285716 0 0 1 0.131811,-0.006 1.4285712,1.4285716 0 0 1 0.04488,7.2e-4 1.4285712,1.4285716 0 0 1 0.04481,0.002 1.4285712,1.4285716 0 0 1 0.04474,0.004 1.4285712,1.4285716 0 0 1 0.04463,0.005 1.4285712,1.4285716 0 0 1 0.04444,0.006 1.4285712,1.4285716 0 0 1 0.04418,0.008 1.4285712,1.4285716 0 0 1 0.04396,0.009 1.4285712,1.4285716 0 0 1 0.04363,0.0105 1.4285712,1.4285716 0 0 1 0.0433,0.0119 1.4285712,1.4285716 0 0 1 0.04289,0.0132 1.4285712,1.4285716 0 0 1 0.04245,0.0145 1.4285712,1.4285716 0 0 1 0.04197,0.0159 1.4285712,1.4285716 0 0 1 0.04149,0.0172 1.4285712,1.4285716 0 0 1 0.0409,0.0185 1.4285712,1.4285716 0 0 1 0.04031,0.0197 1.4285712,1.4285716 0 0 1 0.03964,0.021 1.4285712,1.4285716 0 0 1 0.03898,0.0223 1.4285712,1.4285716 0 0 1 0.03828,0.0234 1.4285712,1.4285716 0 0 1 0.0375,0.0246 1.4285712,1.4285716 0 0 1 0.03673,0.0258 1.4285712,1.4285716 0 0 1 0.03588,0.0269 1.4285712,1.4285716 0 0 1 0.03503,0.0281 1.4285712,1.4285716 0 0 1 0.03411,0.0291 1.4285712,1.4285716 0 0 1 0.03322,0.0302 1.4285712,1.4285716 0 0 1 0.03222,0.0312 z" />
  </g>
</svg>
