<?xml version="1.0" encoding="UTF-8" standalone="no"?>
<!-- Created with Inkscape (http://www.inkscape.org/) -->

<svg
   width="10.00012mm"
   height="10.000092mm"
   viewBox="0 0 10.00012 10.000092"
   version="1.1"
   id="svg8307"
   xmlns="http://www.w3.org/2000/svg"
   xmlns:svg="http://www.w3.org/2000/svg">
  <defs
     id="defs8304" />
  <g
     id="layer1"
     transform="translate(-83.080549,-148.49441)">
    <g
       id="g4969-9-2"
       transform="matrix(0.07142943,0,0,0.07142922,52.371137,123.13704)">
      <rect
         style="fill:#000000;fill-opacity:1;stroke:none;stroke-width:0.0968242;stroke-dasharray:none;stroke-opacity:1;stop-color:#000000"
         id="rect4759-9-8-2"
         width="30"
         height="50"
         x="500"
         y="400" />
      <rect
         style="opacity:1;fill:#000000;fill-opacity:1;stroke:none;stroke-width:0.1;stroke-dasharray:none;stroke-opacity:1;stop-color:#000000"
         id="rect4877-7-05"
         width="10"
         height="50"
         x="540"
         y="400" />
      <rect
         style="opacity:1;fill:#000000;fill-opacity:1;stroke:none;stroke-width:0.1;stroke-dasharray:none;stroke-opacity:1;stop-color:#000000"
         id="rect4879-2-5"
         width="10"
         height="50"
         x="480"
         y="400" />
    </g>
    <path
       id="path7625-0"
       style="fill:#000000;fill-opacity:1;stroke:#000000;stroke-width:0.00714294;stroke-dasharray:none;stroke-opacity:1;stop-color:#000000"
       d="m 88.071487,149.92415 a 3.571471,3.5714668 0 0 0 -3.571475,3.57147 3.571471,3.5714668 0 0 0 3.571475,3.57143 v -0.7168 a 2.8571772,2.8571736 0 0 1 -0.0056,1.5e-4 2.8571772,2.8571736 0 0 1 -0.235942,-0.01 2.8571772,2.8571736 0 0 1 -0.234319,-0.0292 2.8571772,2.8571736 0 0 1 -0.231144,-0.0485 2.8571772,2.8571736 0 0 1 -0.226309,-0.0674 2.8571772,2.8571736 0 0 1 -0.219997,-0.0859 2.8571772,2.8571736 0 0 1 -0.212134,-0.10369 2.8571772,2.8571736 0 0 1 -0.202869,-0.12088 2.8571772,2.8571736 0 0 1 -0.192202,-0.13724 2.8571772,2.8571736 0 0 1 -0.180205,-0.1526 2.8571772,2.8571736 0 0 1 -0.166954,-0.16699 2.8571772,2.8571736 0 0 1 -0.152632,-0.1802 2.8571772,2.8571736 0 0 1 -0.137239,-0.19217 2.8571772,2.8571736 0 0 1 -0.12085,-0.20287 2.8571772,2.8571736 0 0 1 -0.103724,-0.21217 2.8571772,2.8571736 0 0 1 -0.08586,-0.21996 2.8571772,2.8571736 0 0 1 -0.06736,-0.22634 2.8571772,2.8571736 0 0 1 -0.04847,-0.23111 2.8571772,2.8571736 0 0 1 -0.0292,-0.23435 2.8571772,2.8571736 0 0 1 -0.0098,-0.23595 2.8571772,2.8571736 0 0 1 0.0098,-0.23594 2.8571772,2.8571736 0 0 1 0.0292,-0.23432 2.8571772,2.8571736 0 0 1 0.04847,-0.2311 2.8571772,2.8571736 0 0 1 0.06736,-0.22635 2.8571772,2.8571736 0 0 1 0.08586,-0.22 2.8571772,2.8571736 0 0 1 0.103724,-0.21213 2.8571772,2.8571736 0 0 1 0.12085,-0.20287 2.8571772,2.8571736 0 0 1 0.137239,-0.1922 2.8571772,2.8571736 0 0 1 0.152632,-0.1802 2.8571772,2.8571736 0 0 1 0.166954,-0.16696 2.8571772,2.8571736 0 0 1 0.180205,-0.15263 2.8571772,2.8571736 0 0 1 0.192202,-0.1372 2.8571772,2.8571736 0 0 1 0.202869,-0.12089 2.8571772,2.8571736 0 0 1 0.212134,-0.10372 2.8571772,2.8571736 0 0 1 0.219997,-0.0858 2.8571772,2.8571736 0 0 1 0.226309,-0.0674 2.8571772,2.8571736 0 0 1 0.231144,-0.0485 2.8571772,2.8571736 0 0 1 0.234319,-0.0292 2.8571772,2.8571736 0 0 1 0.235942,-0.01 2.8571772,2.8571736 0 0 1 0.0056,7e-5 z" />
  </g>
</svg>
