<?xml version="1.0" encoding="UTF-8" standalone="no"?>
<!-- Created with Inkscape (http://www.inkscape.org/) -->

<svg
   xmlns:dc="http://purl.org/dc/elements/1.1/"
   xmlns:cc="http://creativecommons.org/ns#"
   xmlns:rdf="http://www.w3.org/1999/02/22-rdf-syntax-ns#"
   xmlns:svg="http://www.w3.org/2000/svg"
   xmlns="http://www.w3.org/2000/svg"
   xmlns:sodipodi="http://sodipodi.sourceforge.net/DTD/sodipodi-0.dtd"
   xmlns:inkscape="http://www.inkscape.org/namespaces/inkscape"
   width="10.000013mm"
   height="10mm"
   viewBox="0 0 10.000014 10"
   version="1.1"
   id="svg8307"
   sodipodi:docname="p-type.svg"
   inkscape:version="0.92.4 (5da689c313, 2019-01-14)">
  <metadata
     id="metadata4092">
    <rdf:RDF>
      <cc:Work
         rdf:about="">
        <dc:format>image/svg+xml</dc:format>
        <dc:type
           rdf:resource="http://purl.org/dc/dcmitype/StillImage" />
        <dc:title></dc:title>
      </cc:Work>
    </rdf:RDF>
  </metadata>
  <sodipodi:namedview
     pagecolor="#ffffff"
     bordercolor="#666666"
     borderopacity="1"
     objecttolerance="10"
     gridtolerance="10"
     guidetolerance="10"
     inkscape:pageopacity="0"
     inkscape:pageshadow="2"
     inkscape:window-width="702"
     inkscape:window-height="480"
     id="namedview4090"
     showgrid="false"
     inkscape:zoom="6.2441667"
     inkscape:cx="18.897663"
     inkscape:cy="18.897638"
     inkscape:window-x="0"
     inkscape:window-y="0"
     inkscape:window-maximized="0"
     inkscape:current-layer="svg8307" />
  <defs
     id="defs8304" />
  <g
     id="layer1"
     transform="translate(-56.995975,-134.31193)">
    <path
       id="path3786"
       style="fill:#000000;fill-opacity:1;stroke:#000000;stroke-width:0.00714285;stroke-dasharray:none;stroke-opacity:1;stop-color:#000000"
       d="m 64.016825,141.33247 a 2.8571428,2.8571465 45 0 0 0.159763,-0.1739 2.8571428,2.8571465 45 0 0 0.145028,-0.18634 2.8571428,2.8571465 45 0 0 0.129132,-0.19771 2.8571428,2.8571465 45 0 0 0.112387,-0.2077 2.8571428,2.8571465 45 0 0 0.09491,-0.21623 2.8571428,2.8571465 45 0 0 0.0767,-0.22335 2.8571428,2.8571465 45 0 0 0.058,-0.22892 2.8571428,2.8571465 45 0 0 0.0389,-0.23292 2.8571428,2.8571465 45 0 0 0.0195,-0.23532 2.8571428,2.8571465 45 0 0 0,-0.23616 2.8571428,2.8571465 45 0 0 -0.0195,-0.23533 2.8571428,2.8571465 45 0 0 -0.0389,-0.23292 2.8571428,2.8571465 45 0 0 -0.058,-0.22893 2.8571428,2.8571465 45 0 0 -0.0767,-0.22334 2.8571428,2.8571465 45 0 0 -0.0949,-0.21624 2.8571428,2.8571465 45 0 0 -0.112388,-0.20771 2.8571428,2.8571465 45 0 0 -0.129127,-0.19771 2.8571428,2.8571465 45 0 0 -0.145033,-0.18633 2.8571428,2.8571465 45 0 0 -0.159766,-0.17391 l -0.502619,0.50262 a 2.1428573,2.14286 45 0 1 0.106449,0.11493 2.1428573,2.14286 45 0 1 0.09993,0.12525 2.1428573,2.14286 45 0 1 0.09017,0.13246 2.1428573,2.14286 45 0 1 0.08008,0.13877 2.1428573,2.14286 45 0 1 0.06947,0.14442 2.1428573,2.14286 45 0 1 0.05851,0.14916 2.1428573,2.14286 45 0 1 0.0472,0.15313 2.1428573,2.14286 45 0 1 0.03571,0.1562 2.1428573,2.14286 45 0 1 0.02394,0.15842 2.1428573,2.14286 45 0 1 0.012,0.15981 2.1428573,2.14286 45 0 1 0,0.16026 2.1428573,2.14286 45 0 1 -0.012,0.15982 2.1428573,2.14286 45 0 1 -0.02389,0.15841 2.1428573,2.14286 45 0 1 -0.0357,0.15619 2.1428573,2.14286 45 0 1 -0.0472,0.15314 2.1428573,2.14286 45 0 1 -0.0585,0.14918 2.1428573,2.14286 45 0 1 -0.0695,0.14437 2.1428573,2.14286 45 0 1 -0.08009,0.13878 2.1428573,2.14286 45 0 1 -0.09031,0.13242 2.1428573,2.14286 45 0 1 -0.0999,0.12526 2.1428573,2.14286 45 0 1 -0.109007,0.11749 l 2.9e-5,3e-5 a 2.1428573,2.14286 45 0 1 -0.0019,0.002 z" />
    <path
       id="path5655"
       style="fill:#000000;fill-opacity:1;stroke:#000000;stroke-width:0.00714285;stroke-dasharray:none;stroke-opacity:1;stop-color:#000000"
       d="m 59.976228,141.33251 0.507572,-0.50758 a 2.1428573,2.14286 45 0 1 -0.003,-0.003 2.1428573,2.14286 45 0 1 -0.108983,-0.11747 2.1428573,2.14286 45 0 1 -0.09993,-0.12524 2.1428573,2.14286 45 0 1 -0.09028,-0.13243 2.1428573,2.14286 45 0 1 -0.08009,-0.13878 2.1428573,2.14286 45 0 1 -0.06947,-0.14442 2.1428573,2.14286 45 0 1 -0.05863,-0.14914 2.1428573,2.14286 45 0 1 -0.0472,-0.15313 2.1428573,2.14286 45 0 1 -0.03571,-0.1562 2.1428573,2.14286 45 0 1 -0.02393,-0.15842 2.1428573,2.14286 45 0 1 -0.01199,-0.15982 2.1428573,2.14286 45 0 1 0,-0.16026 2.1428573,2.14286 45 0 1 0.01199,-0.15981 2.1428573,2.14286 45 0 1 0.0238,-0.15849 2.1428573,2.14286 45 0 1 0.0357,-0.15619 2.1428573,2.14286 45 0 1 0.0472,-0.15314 2.1428573,2.14286 45 0 1 0.0585,-0.14918 2.1428573,2.14286 45 0 1 0.06949,-0.14436 2.1428573,2.14286 45 0 1 0.0801,-0.13879 2.1428573,2.14286 45 0 1 0.0903,-0.13242 2.1428573,2.14286 45 0 1 0.0999,-0.12525 2.1428573,2.14286 45 0 1 0.106504,-0.11499 l -0.502589,-0.50259 a 2.8571428,2.8571465 45 0 0 -0.159764,0.1739 2.8571428,2.8571465 45 0 0 -0.14507,0.18637 2.8571428,2.8571465 45 0 0 -0.129188,0.19764 2.8571428,2.8571465 45 0 0 -0.112388,0.2077 2.8571428,2.8571465 45 0 0 -0.0949,0.21623 2.8571428,2.8571465 45 0 0 -0.07671,0.22335 2.8571428,2.8571465 45 0 0 -0.058,0.22893 2.8571428,2.8571465 45 0 0 -0.03889,0.23288 2.8571428,2.8571465 45 0 0 -0.0195,0.23536 2.8571428,2.8571465 45 0 0 -9e-6,0.23615 2.8571428,2.8571465 45 0 0 0.0195,0.23535 2.8571428,2.8571465 45 0 0 0.0389,0.2329 2.8571428,2.8571465 45 0 0 0.058,0.22892 2.8571428,2.8571465 45 0 0 0.0766,0.22334 2.8571428,2.8571465 45 0 0 0.0949,0.21624 2.8571428,2.8571465 45 0 0 0.112398,0.20772 2.8571428,2.8571465 45 0 0 0.129189,0.19764 2.8571428,2.8571465 45 0 0 0.145062,0.18635 2.8571428,2.8571465 45 0 0 0.159761,0.17391 z" />
  </g>
  <rect
     style="opacity:1;fill:#000000;fill-opacity:1;stroke:none;stroke-width:0.00714286;stroke-dasharray:none;stroke-opacity:1"
     id="rect4877"
     width="0.71428567"
     height="3.5714288"
     x="-8.4106092"
     y="3.2142825"
     transform="rotate(-90)" />
</svg>
