<?xml version="1.0" encoding="UTF-8" standalone="no"?>
<!-- Created with Inkscape (http://www.inkscape.org/) -->

<svg
   width="10.000013mm"
   height="10mm"
   viewBox="0 0 10.000013 10"
   version="1.1"
   id="svg8307"
   xmlns="http://www.w3.org/2000/svg"
   xmlns:svg="http://www.w3.org/2000/svg">
  <defs
     id="defs8304" />
  <g
     id="layer1"
     transform="translate(-53.94821,-131.48664)">
    <path
       id="path3786-06"
       style="fill:#000000;fill-opacity:1;stroke:#000000;stroke-width:0.00714285;stroke-dasharray:none;stroke-opacity:1;stop-color:#000000"
       d="m 60.96905,137.44884 a 2.8571428,2.8571465 45 0 0 0.15977,-0.1739 2.8571428,2.8571465 45 0 0 0.14503,-0.18634 2.8571428,2.8571465 45 0 0 0.12913,-0.19771 2.8571428,2.8571465 45 0 0 0.11238,-0.2077 2.8571428,2.8571465 45 0 0 0.0949,-0.21623 2.8571428,2.8571465 45 0 0 0.0767,-0.22335 2.8571428,2.8571465 45 0 0 0.058,-0.22892 2.8571428,2.8571465 45 0 0 0.0389,-0.23292 2.8571428,2.8571465 45 0 0 0.0195,-0.23532 2.8571428,2.8571465 45 0 0 0,-0.23616 2.8571428,2.8571465 45 0 0 -0.0195,-0.23533 2.8571428,2.8571465 45 0 0 -0.0389,-0.23292 2.8571428,2.8571465 45 0 0 -0.058,-0.22893 2.8571428,2.8571465 45 0 0 -0.0767,-0.22334 2.8571428,2.8571465 45 0 0 -0.0949,-0.21624 2.8571428,2.8571465 45 0 0 -0.11238,-0.20771 2.8571428,2.8571465 45 0 0 -0.12913,-0.19771 2.8571428,2.8571465 45 0 0 -0.14503,-0.18633 2.8571428,2.8571465 45 0 0 -0.15977,-0.17391 l -0.50262,0.50262 a 2.1428573,2.14286 45 0 1 0.10645,0.11493 2.1428573,2.14286 45 0 1 0.0999,0.12525 2.1428573,2.14286 45 0 1 0.0902,0.13246 2.1428573,2.14286 45 0 1 0.0801,0.13877 2.1428573,2.14286 45 0 1 0.0695,0.14442 2.1428573,2.14286 45 0 1 0.0585,0.14916 2.1428573,2.14286 45 0 1 0.0472,0.15313 2.1428573,2.14286 45 0 1 0.0357,0.1562 2.1428573,2.14286 45 0 1 0.0239,0.15842 2.1428573,2.14286 45 0 1 0.012,0.15981 2.1428573,2.14286 45 0 1 0,0.16026 2.1428573,2.14286 45 0 1 -0.012,0.15982 2.1428573,2.14286 45 0 1 -0.0239,0.15841 2.1428573,2.14286 45 0 1 -0.0357,0.15619 2.1428573,2.14286 45 0 1 -0.0472,0.15314 2.1428573,2.14286 45 0 1 -0.0585,0.14918 2.1428573,2.14286 45 0 1 -0.0695,0.14437 2.1428573,2.14286 45 0 1 -0.0801,0.13878 2.1428573,2.14286 45 0 1 -0.0903,0.13242 2.1428573,2.14286 45 0 1 -0.0999,0.12526 2.1428573,2.14286 45 0 1 -0.10901,0.11749 l 3e-5,3e-5 a 2.1428573,2.14286 45 0 1 -0.002,0.002 z" />
    <path
       id="path5655-2"
       style="fill:#000000;fill-opacity:1;stroke:#000000;stroke-width:0.00714285;stroke-dasharray:none;stroke-opacity:1;stop-color:#000000"
       d="m 56.92846,137.44888 0.50757,-0.50758 a 2.1428573,2.14286 45 0 1 -0.003,-0.003 2.1428573,2.14286 45 0 1 -0.10898,-0.11747 2.1428573,2.14286 45 0 1 -0.0999,-0.12524 2.1428573,2.14286 45 0 1 -0.0903,-0.13243 2.1428573,2.14286 45 0 1 -0.0801,-0.13878 2.1428573,2.14286 45 0 1 -0.0695,-0.14442 2.1428573,2.14286 45 0 1 -0.0586,-0.14914 2.1428573,2.14286 45 0 1 -0.0472,-0.15313 2.1428573,2.14286 45 0 1 -0.0357,-0.1562 2.1428573,2.14286 45 0 1 -0.0239,-0.15842 2.1428573,2.14286 45 0 1 -0.012,-0.15982 2.1428573,2.14286 45 0 1 0,-0.16026 2.1428573,2.14286 45 0 1 0.012,-0.15981 2.1428573,2.14286 45 0 1 0.0238,-0.15849 2.1428573,2.14286 45 0 1 0.0357,-0.15619 2.1428573,2.14286 45 0 1 0.0472,-0.15314 2.1428573,2.14286 45 0 1 0.0585,-0.14918 2.1428573,2.14286 45 0 1 0.0695,-0.14436 2.1428573,2.14286 45 0 1 0.0801,-0.13879 2.1428573,2.14286 45 0 1 0.0903,-0.13242 2.1428573,2.14286 45 0 1 0.0999,-0.12525 2.1428573,2.14286 45 0 1 0.1065,-0.11499 l -0.50259,-0.50259 a 2.8571428,2.8571465 45 0 0 -0.15976,0.1739 2.8571428,2.8571465 45 0 0 -0.14507,0.18637 2.8571428,2.8571465 45 0 0 -0.12919,0.19764 2.8571428,2.8571465 45 0 0 -0.11239,0.2077 2.8571428,2.8571465 45 0 0 -0.0949,0.21623 2.8571428,2.8571465 45 0 0 -0.0767,0.22335 2.8571428,2.8571465 45 0 0 -0.058,0.22893 2.8571428,2.8571465 45 0 0 -0.0389,0.23288 2.8571428,2.8571465 45 0 0 -0.0195,0.23536 2.8571428,2.8571465 45 0 0 -1e-5,0.23615 2.8571428,2.8571465 45 0 0 0.0195,0.23535 2.8571428,2.8571465 45 0 0 0.0389,0.2329 2.8571428,2.8571465 45 0 0 0.058,0.22892 2.8571428,2.8571465 45 0 0 0.0766,0.22334 2.8571428,2.8571465 45 0 0 0.0949,0.21624 2.8571428,2.8571465 45 0 0 0.1124,0.20772 2.8571428,2.8571465 45 0 0 0.12919,0.19764 2.8571428,2.8571465 45 0 0 0.14506,0.18635 2.8571428,2.8571465 45 0 0 0.15976,0.17391 z" />
    <rect
       style="fill:#000000;fill-opacity:1;stroke:none;stroke-width:0.00833333;stroke-dasharray:none;stroke-opacity:1;stop-color:#000000"
       id="rect6342-8-7"
       width="4.999999"
       height="0.83333337"
       x="56.448212"
       y="138.59427" />
  </g>
</svg>
