<?xml version="1.0" encoding="UTF-8" standalone="no"?>
<!-- Created with Inkscape (http://www.inkscape.org/) -->

<svg
   width="9.9999981mm"
   height="9.9999952mm"
   viewBox="0 0 9.9999981 9.9999952"
   version="1.1"
   id="svg8307"
   xmlns="http://www.w3.org/2000/svg"
   xmlns:svg="http://www.w3.org/2000/svg">
  <defs
     id="defs8304" />
  <g
     id="layer1"
     transform="translate(-95.639004,-161.49778)">
    <path
       id="path7317-91"
       style="fill:#000000;fill-opacity:1;stroke:#000000;stroke-width:0.00714285;stroke-dasharray:none;stroke-opacity:1;stop-color:#000000"
       d="m 101.26522,162.92992 a 3.270411,3.9001499 47.519214 0 0 -0.72708,0.0726 l -0.12896,0.73141 a 2.6163287,3.1201202 47.519216 0 1 0.004,-10e-4 l -0.13157,0.74617 -0.10406,0.59014 -0.0337,0.19139 a 1.3081643,1.56006 47.519222 0 1 0.10327,-0.0499 1.3081643,1.56006 47.519222 0 1 0.10545,-0.0427 1.3081643,1.56006 47.519222 0 1 0.10707,-0.0353 1.3081643,1.56006 47.519222 0 1 0.10804,-0.0276 1.3081643,1.56006 47.519222 0 1 0.10848,-0.0199 1.3081643,1.56006 47.519222 0 1 0.10827,-0.012 1.3081643,1.56006 47.519222 0 1 0.10745,-0.004 1.3081643,1.56006 47.519222 0 1 0.0367,5e-4 1.3081643,1.56006 47.519222 0 1 0.0365,0.001 1.3081643,1.56006 47.519222 0 1 0.0363,0.002 1.3081643,1.56006 47.519222 0 1 0.0361,0.003 1.3081643,1.56006 47.519222 0 1 0.0358,0.004 1.3081643,1.56006 47.519222 0 1 0.0355,0.005 1.3081643,1.56006 47.519222 0 1 0.0352,0.006 1.3081643,1.56006 47.519222 0 1 0.0348,0.007 1.3081643,1.56006 47.519222 0 1 0.0345,0.008 1.3081643,1.56006 47.519222 0 1 0.0341,0.009 1.3081643,1.56006 47.519222 0 1 0.0337,0.01 1.3081643,1.56006 47.519222 0 1 0.0333,0.0107 1.3081643,1.56006 47.519222 0 1 0.0329,0.0116 1.3081643,1.56006 47.519222 0 1 0.0324,0.0126 1.3081643,1.56006 47.519222 0 1 0.0319,0.0134 1.3081643,1.56006 47.519222 0 1 0.0314,0.0143 1.3081643,1.56006 47.519222 0 1 0.0308,0.0152 1.3081643,1.56006 47.519222 0 1 0.0303,0.016 1.3081643,1.56006 47.519222 0 1 0.0297,0.0169 1.3081643,1.56006 47.519222 0 1 0.0291,0.0177 1.3081643,1.56006 47.519222 0 1 0.0285,0.0185 1.3081643,1.56006 47.519222 0 1 0.0279,0.0193 1.3081643,1.56006 47.519222 0 1 0.0272,0.0202 1.3081643,1.56006 47.519222 0 1 0.0265,0.0209 1.3081643,1.56006 47.519222 0 1 0.0259,0.0217 1.3081643,1.56006 47.519222 0 1 0.0252,0.0225 1.3081643,1.56006 47.519222 0 1 0.0245,0.0232 1.3081643,1.56006 47.519222 0 1 0.0237,0.0239 1.3081643,1.56006 47.519222 0 1 0.023,0.0247 1.3081643,1.56006 47.519222 0 1 0.0222,0.0253 1.3081643,1.56006 47.519222 0 1 0.0214,0.026 1.3081643,1.56006 47.519222 0 1 0.0206,0.0267 1.3081643,1.56006 47.519222 0 1 0.0198,0.0273 1.3081643,1.56006 47.519222 0 1 0.019,0.0279 1.3081643,1.56006 47.519222 0 1 0.0182,0.0285 1.3081643,1.56006 47.519222 0 1 0.0173,0.0291 1.3081643,1.56006 47.519222 0 1 0.0165,0.0297 1.3081643,1.56006 47.519222 0 1 0.0156,0.0303 1.3081643,1.56006 47.519222 0 1 0.0147,0.0308 1.3081643,1.56006 47.519222 0 1 0.0138,0.0313 1.3081643,1.56006 47.519222 0 1 0.0129,0.0318 1.3081643,1.56006 47.519222 0 1 0.012,0.0323 1.3081643,1.56006 47.519222 0 1 0.0111,0.0327 1.3081643,1.56006 47.519222 0 1 0.0102,0.0332 1.3081643,1.56006 47.519222 0 1 0.009,0.0335 1.3081643,1.56006 47.519222 0 1 0.008,0.0339 1.3081643,1.56006 47.519222 0 1 0.007,0.0342 1.3081643,1.56006 47.519222 0 1 0.006,0.0346 1.3081643,1.56006 47.519222 0 1 0.005,0.0349 1.3081643,1.56006 47.519222 0 1 0.005,0.0352 1.3081643,1.56006 47.519222 0 1 0.004,0.0355 1.3081643,1.56006 47.519222 0 1 0.003,0.0357 1.3081643,1.56006 47.519222 0 1 0.002,0.0359 1.3081643,1.56006 47.519222 0 1 7.5e-4,0.0361 1.3081643,1.56006 47.519222 0 1 -2.5e-4,0.0363 1.3081643,1.56006 47.519222 0 1 -0.001,0.0364 1.3081643,1.56006 47.519222 0 1 -0.002,0.0366 1.3081643,1.56006 47.519222 0 1 -0.003,0.0366 1.3081643,1.56006 47.519222 0 1 -0.004,0.0367 1.3081643,1.56006 47.519222 0 1 -0.005,0.0368 1.3081643,1.56006 47.519222 0 1 -0.006,0.0368 1.3081643,1.56006 47.519222 0 1 -0.0228,0.10675 1.3081643,1.56006 47.519222 0 1 -0.0307,0.10616 1.3081643,1.56006 47.519222 0 1 -0.0384,0.10497 1.3081643,1.56006 47.519222 0 1 -0.0458,0.10321 1.3081643,1.56006 47.519222 0 1 -0.0531,0.10084 1.3081643,1.56006 47.519222 0 1 -0.06,0.0979 1.3081643,1.56006 47.519222 0 1 -0.0666,0.0945 1.3081643,1.56006 47.519222 0 1 -0.0728,0.0905 1.3081643,1.56006 47.519222 0 1 -0.0786,0.086 1.3081643,1.56006 47.519222 0 1 -0.084,0.0809 1.3081643,1.56006 47.519222 0 1 -0.0889,0.0756 1.3081643,1.56006 47.519222 0 1 -0.0933,0.0697 1.3081643,1.56006 47.519222 0 1 -0.0971,0.0634 1.3081643,1.56006 47.519222 0 1 -0.10049,0.0568 1.3081643,1.56006 47.519222 0 1 -0.10323,0.0499 1.3081643,1.56006 47.519222 0 1 -0.10546,0.0427 1.3081643,1.56006 47.519222 0 1 -0.10706,0.0353 1.3081643,1.56006 47.519222 0 1 -0.10808,0.0276 1.3081643,1.56006 47.519222 0 1 -0.10844,0.0199 1.3081643,1.56006 47.519222 0 1 -0.10831,0.012 1.3081643,1.56006 47.519222 0 1 -0.10745,0.004 1.3081643,1.56006 47.519222 0 1 -4e-5,0 l 1e-5,-4e-5 h -0.001 a 1.3081643,1.56006 47.519222 0 1 -0.10506,-0.004 1.3081643,1.56006 47.519222 0 1 -0.10405,-0.012 1.3081643,1.56006 47.519222 0 1 -0.10147,-0.0199 1.3081643,1.56006 47.519222 0 1 -0.09829,-0.0276 1.3081643,1.56006 47.519222 0 1 -0.09462,-0.0353 1.3081643,1.56006 47.519222 0 1 -0.0904,-0.0427 1.3081643,1.56006 47.519222 0 1 -0.08565,-0.0499 l -0.03374,0.19135 h -3.8e-5 l -0.235627,1.33632 a 2.6163287,3.1201202 47.519216 0 1 -0.0033,-0.001 l -0.130222,0.73852 a 3.270411,3.9001499 47.519214 0 0 0.701477,0.0726 3.270411,3.9001499 47.519214 0 0 4.20113,-3.57139 3.270411,3.9001499 47.519214 0 0 -2.94165,-3.57143 z m -0.1218,0.7107 a 2.6163287,3.1201202 47.519216 0 1 0.0746,10e-4 2.6163287,3.1201202 47.519216 0 1 0.0742,0.003 2.6163287,3.1201202 47.519216 0 1 0.0738,0.005 2.6163287,3.1201202 47.519216 0 1 0.0733,0.007 2.6163287,3.1201202 47.519216 0 1 0.0727,0.009 2.6163287,3.1201202 47.519216 0 1 0.0721,0.0107 2.6163287,3.1201202 47.519216 0 1 0.0715,0.0127 2.6163287,3.1201202 47.519216 0 1 0.0708,0.0146 2.6163287,3.1201202 47.519216 0 1 0.07,0.0165 2.6163287,3.1201202 47.519216 0 1 0.0692,0.0184 2.6163287,3.1201202 47.519216 0 1 0.0684,0.0203 2.6163287,3.1201202 47.519216 0 1 0.0675,0.0222 2.6163287,3.1201202 47.519216 0 1 0.0666,0.024 2.6163287,3.1201202 47.519216 0 1 0.0656,0.0259 2.6163287,3.1201202 47.519216 0 1 0.0646,0.0277 2.6163287,3.1201202 47.519216 0 1 0.0635,0.0295 2.6163287,3.1201202 47.519216 0 1 0.0624,0.0313 2.6163287,3.1201202 47.519216 0 1 0.0612,0.0331 2.6163287,3.1201202 47.519216 0 1 0.0601,0.0348 2.6163287,3.1201202 47.519216 0 1 0.0588,0.0366 2.6163287,3.1201202 47.519216 0 1 0.0575,0.0382 2.6163287,3.1201202 47.519216 0 1 0.0562,0.0399 2.6163287,3.1201202 47.519216 0 1 0.0549,0.0416 2.6163287,3.1201202 47.519216 0 1 0.0535,0.0431 2.6163287,3.1201202 47.519216 0 1 0.052,0.0448 2.6163287,3.1201202 47.519216 0 1 0.0506,0.0463 2.6163287,3.1201202 47.519216 0 1 0.0491,0.0478 2.6163287,3.1201202 47.519216 0 1 0.0475,0.0493 2.6163287,3.1201202 47.519216 0 1 0.046,0.0508 2.6163287,3.1201202 47.519216 0 1 0.0444,0.0522 2.6163287,3.1201202 47.519216 0 1 0.0427,0.0536 2.6163287,3.1201202 47.519216 0 1 0.0411,0.0549 2.6163287,3.1201202 47.519216 0 1 0.0394,0.0563 2.6163287,3.1201202 47.519216 0 1 0.0377,0.0575 2.6163287,3.1201202 47.519216 0 1 0.036,0.0587 2.6163287,3.1201202 47.519216 0 1 0.0342,0.0599 2.6163287,3.1201202 47.519216 0 1 0.0324,0.0611 2.6163287,3.1201202 47.519216 0 1 0.0306,0.0622 2.6163287,3.1201202 47.519216 0 1 0.0288,0.0633 2.6163287,3.1201202 47.519216 0 1 0.0269,0.0643 2.6163287,3.1201202 47.519216 0 1 0.025,0.0653 2.6163287,3.1201202 47.519216 0 1 0.0231,0.0662 2.6163287,3.1201202 47.519216 0 1 0.0213,0.0671 2.6163287,3.1201202 47.519216 0 1 0.0193,0.068 2.6163287,3.1201202 47.519216 0 1 0.0174,0.0687 2.6163287,3.1201202 47.519216 0 1 0.0155,0.0695 2.6163287,3.1201202 47.519216 0 1 0.0135,0.0702 2.6163287,3.1201202 47.519216 0 1 0.0116,0.0708 2.6163287,3.1201202 47.519216 0 1 0.01,0.0714 2.6163287,3.1201202 47.519216 0 1 0.008,0.072 2.6163287,3.1201202 47.519216 0 1 0.006,0.0725 2.6163287,3.1201202 47.519216 0 1 0.004,0.073 2.6163287,3.1201202 47.519216 0 1 0.002,0.0733 2.6163287,3.1201202 47.519216 0 1 -3.7e-4,0.0737 2.6163287,3.1201202 47.519216 0 1 -0.002,0.074 2.6163287,3.1201202 47.519216 0 1 -0.004,0.0743 2.6163287,3.1201202 47.519216 0 1 -0.006,0.0745 2.6163287,3.1201202 47.519216 0 1 -0.008,0.0746 2.6163287,3.1201202 47.519216 0 1 -0.0103,0.0747 2.6163287,3.1201202 47.519216 0 1 -0.0122,0.0748 2.6163287,3.1201202 47.519216 0 1 -0.0484,0.22416 2.6163287,3.1201202 47.519216 0 1 -0.0656,0.2228 2.6163287,3.1201202 47.519216 0 1 -0.0826,0.22003 2.6163287,3.1201202 47.519216 0 1 -0.0989,0.2159 2.6163287,3.1201202 47.519216 0 1 -0.11478,0.21051 2.6163287,3.1201202 47.519216 0 1 -0.12986,0.20371 2.6163287,3.1201202 47.519216 0 1 -0.14411,0.19575 2.6163287,3.1201202 47.519216 0 1 -0.15754,0.18651 2.6163287,3.1201202 47.519216 0 1 -0.16996,0.17618 2.6163287,3.1201202 47.519216 0 1 -0.18131,0.16474 2.6163287,3.1201202 47.519216 0 1 -0.19159,0.1523 2.6163287,3.1201202 47.519216 0 1 -0.20067,0.1389 2.6163287,3.1201202 47.519216 0 1 -0.20853,0.12461 2.6163287,3.1201202 47.519216 0 1 -0.21507,0.10963 2.6163287,3.1201202 47.519216 0 1 -0.22028,0.0939 2.6163287,3.1201202 47.519216 0 1 -0.22416,0.0776 2.6163287,3.1201202 47.519216 0 1 -0.22667,0.0609 2.6163287,3.1201202 47.519216 0 1 -0.22775,0.0438 2.6163287,3.1201202 47.519216 0 1 -0.22745,0.0264 2.6163287,3.1201202 47.519216 0 1 -0.22572,0.009 l 0.12594,-0.71424 a 1.9622468,2.3400901 47.519219 0 0 4e-5,0 1.9622468,2.3400901 47.519219 0 0 2.52072,-2.14287 1.9622468,2.3400901 47.519219 0 0 -1.76503,-2.14284 1.9622468,2.3400901 47.519219 0 0 -4e-5,0 z" />
  </g>
</svg>
