<?xml version="1.0" encoding="UTF-8" standalone="no"?>
<!-- Created with Inkscape (http://www.inkscape.org/) -->

<svg
   width="9.9999981mm"
   height="10.000004mm"
   viewBox="0 0 9.9999978 10.000004"
   version="1.1"
   id="svg8307"
   xmlns="http://www.w3.org/2000/svg"
   xmlns:svg="http://www.w3.org/2000/svg">
  <defs
     id="defs8304" />
  <g
     id="layer1"
     transform="translate(-59.982657,-147.19847)">
    <path
       id="path7317-9"
       style="fill:#000000;fill-opacity:1;stroke:#000000;stroke-width:0.00714286;stroke-dasharray:none;stroke-opacity:1;stop-color:#000000"
       d="m 64.979141,148.63062 a 3.571428,3.57143 0 0 0 -0.714279,0.0726 v 0.7314 a 2.8571424,2.857144 0 0 1 0.05079,-0.0143 2.8571424,2.857144 0 0 1 0.220031,-0.0438 2.8571424,2.857144 0 0 1 0.222799,-0.0263 2.8571424,2.857144 0 0 1 0.224165,-0.009 2.8571424,2.857144 0 0 1 0.07478,9.9e-4 2.8571424,2.857144 0 0 1 0.07475,0.003 2.8571424,2.857144 0 0 1 0.07464,0.005 2.8571424,2.857144 0 0 1 0.07449,0.007 2.8571424,2.857144 0 0 1 0.0743,0.009 2.8571424,2.857144 0 0 1 0.07401,0.0107 2.8571424,2.857144 0 0 1 0.07371,0.0127 2.8571424,2.857144 0 0 1 0.07338,0.0146 2.8571424,2.857144 0 0 1 0.07294,0.0165 2.8571424,2.857144 0 0 1 0.0725,0.0184 2.8571424,2.857144 0 0 1 0.07198,0.0203 2.8571424,2.857144 0 0 1 0.07146,0.0222 2.8571424,2.857144 0 0 1 0.0708,0.024 2.8571424,2.857144 0 0 1 0.07021,0.0259 2.8571424,2.857144 0 0 1 0.06947,0.0277 2.8571424,2.857144 0 0 1 0.06873,0.0295 2.8571424,2.857144 0 0 1 0.06792,0.0313 2.8571424,2.857144 0 0 1 0.06707,0.0331 2.8571424,2.857144 0 0 1 0.06622,0.0348 2.8571424,2.857144 0 0 1 0.06526,0.0366 2.8571424,2.857144 0 0 1 0.06426,0.0382 2.8571424,2.857144 0 0 1 0.06327,0.0399 2.8571424,2.857144 0 0 1 0.0622,0.0416 2.8571424,2.857144 0 0 1 0.06109,0.0431 2.8571424,2.857144 0 0 1 0.05991,0.0448 2.8571424,2.857144 0 0 1 0.05876,0.0463 2.8571424,2.857144 0 0 1 0.05751,0.0478 2.8571424,2.857144 0 0 1 0.05622,0.0493 2.8571424,2.857144 0 0 1 0.05492,0.0508 2.8571424,2.857144 0 0 1 0.0536,0.0522 2.8571424,2.857144 0 0 1 0.05219,0.0536 2.8571424,2.857144 0 0 1 0.05075,0.0549 2.8571424,2.857144 0 0 1 0.04932,0.0562 2.8571424,2.857144 0 0 1 0.04784,0.0575 2.8571424,2.857144 0 0 1 0.04632,0.0587 2.8571424,2.857144 0 0 1 0.04474,0.06 2.8571424,2.857144 0 0 1 0.04319,0.0611 2.8571424,2.857144 0 0 1 0.04153,0.0622 2.8571424,2.857144 0 0 1 0.03994,0.0633 2.8571424,2.857144 0 0 1 0.03824,0.0643 2.8571424,2.857144 0 0 1 0.03654,0.0653 2.8571424,2.857144 0 0 1 0.03481,0.0662 2.8571424,2.857144 0 0 1 0.03311,0.0671 2.8571424,2.857144 0 0 1 0.0313,0.0679 2.8571424,2.857144 0 0 1 0.02953,0.0687 2.8571424,2.857144 0 0 1 0.02772,0.0695 2.8571424,2.857144 0 0 1 0.02587,0.0702 2.8571424,2.857144 0 0 1 0.02407,0.0708 2.8571424,2.857144 0 0 1 0.02215,0.0714 2.8571424,2.857144 0 0 1 0.0203,0.072 2.8571424,2.857144 0 0 1 0.01842,0.0725 2.8571424,2.857144 0 0 1 0.0165,0.073 2.8571424,2.857144 0 0 1 0.01462,0.0733 2.8571424,2.857144 0 0 1 0.01266,0.0737 2.8571424,2.857144 0 0 1 0.01074,0.074 2.8571424,2.857144 0 0 1 0.0088,0.0743 2.8571424,2.857144 0 0 1 0.0068,0.0745 2.8571424,2.857144 0 0 1 0.0049,0.0746 2.8571424,2.857144 0 0 1 0.0029,0.0747 2.8571424,2.857144 0 0 1 9.93e-4,0.0748 2.8571424,2.857144 0 0 1 -0.0088,0.22417 2.8571424,2.857144 0 0 1 -0.02635,0.2228 2.8571424,2.857144 0 0 1 -0.04378,0.22003 2.8571424,2.857144 0 0 1 -0.06087,0.2159 2.8571424,2.857144 0 0 1 -0.07766,0.2105 2.8571424,2.857144 0 0 1 -0.09394,0.20372 2.8571424,2.857144 0 0 1 -0.10959,0.19574 2.8571424,2.857144 0 0 1 -0.124651,0.18652 2.8571424,2.857144 0 0 1 -0.138899,0.17618 2.8571424,2.857144 0 0 1 -0.152261,0.16473 2.8571424,2.857144 0 0 1 -0.164737,0.1523 2.8571424,2.857144 0 0 1 -0.17618,0.1389 2.8571424,2.857144 0 0 1 -0.186551,0.12462 2.8571424,2.857144 0 0 1 -0.195744,0.10962 2.8571424,2.857144 0 0 1 -0.203716,0.0939 2.8571424,2.857144 0 0 1 -0.21047,0.0776 2.8571424,2.857144 0 0 1 -0.215934,0.0609 2.8571424,2.857144 0 0 1 -0.220031,0.0438 2.8571424,2.857144 0 0 1 -0.222799,0.0264 2.8571424,2.857144 0 0 1 -0.224165,0.009 2.8571424,2.857144 0 0 1 -0.224165,-0.009 2.8571424,2.857144 0 0 1 -0.222799,-0.0264 2.8571424,2.857144 0 0 1 -0.220031,-0.0438 2.8571424,2.857144 0 0 1 -0.05079,-0.0143 v 0.73853 a 3.571428,3.57143 0 0 0 0.714279,0.0726 3.571428,3.57143 0 0 0 3.571394,-3.5714 3.571428,3.57143 0 0 0 -3.571394,-3.57143 z" />
    <path
       id="path7331-9"
       style="fill:#000000;fill-opacity:1;stroke:none;stroke-width:0.00714286;stroke-dasharray:none;stroke-opacity:1;stop-color:#000000"
       d="m 64.268368,150.17977 v 0.78153 a 1.4285712,1.428572 0 0 1 0.09446,-0.0499 1.4285712,1.428572 0 0 1 0.09793,-0.0427 1.4285712,1.428572 0 0 1 0.100843,-0.0353 1.4285712,1.428572 0 0 1 0.103169,-0.0276 1.4285712,1.428572 0 0 1 0.104976,-0.0199 1.4285712,1.428572 0 0 1 0.106159,-0.012 1.4285712,1.428572 0 0 1 0.106748,-0.004 1.4285712,1.428572 0 0 1 0.0368,5e-4 1.4285712,1.428572 0 0 1 0.03676,0.001 1.4285712,1.428572 0 0 1 0.03669,0.002 1.4285712,1.428572 0 0 1 0.03665,0.003 1.4285712,1.428572 0 0 1 0.03654,0.004 1.4285712,1.428572 0 0 1 0.03639,0.005 1.4285712,1.428572 0 0 1 0.03628,0.006 1.4285712,1.428572 0 0 1 0.0361,0.007 1.4285712,1.428572 0 0 1 0.03592,0.008 1.4285712,1.428572 0 0 1 0.03569,0.009 1.4285712,1.428572 0 0 1 0.03544,0.01 1.4285712,1.428572 0 0 1 0.03518,0.0107 1.4285712,1.428572 0 0 1 0.03492,0.0116 1.4285712,1.428572 0 0 1 0.03459,0.0126 1.4285712,1.428572 0 0 1 0.03425,0.0134 1.4285712,1.428572 0 0 1 0.03388,0.0143 1.4285712,1.428572 0 0 1 0.03352,0.0152 1.4285712,1.428572 0 0 1 0.03311,0.016 1.4285712,1.428572 0 0 1 0.03267,0.0169 1.4285712,1.428572 0 0 1 0.03226,0.0177 1.4285712,1.428572 0 0 1 0.03178,0.0185 1.4285712,1.428572 0 0 1 0.0313,0.0193 1.4285712,1.428572 0 0 1 0.03078,0.0202 1.4285712,1.428572 0 0 1 0.03023,0.0209 1.4285712,1.428572 0 0 1 0.02971,0.0217 1.4285712,1.428572 0 0 1 0.02912,0.0225 1.4285712,1.428572 0 0 1 0.02857,0.0232 1.4285712,1.428572 0 0 1 0.02794,0.0239 1.4285712,1.428572 0 0 1 0.02731,0.0247 1.4285712,1.428572 0 0 1 0.02665,0.0253 1.4285712,1.428572 0 0 1 0.02602,0.026 1.4285712,1.428572 0 0 1 0.02532,0.0267 1.4285712,1.428572 0 0 1 0.02466,0.0273 1.4285712,1.428572 0 0 1 0.02392,0.028 1.4285712,1.428572 0 0 1 0.02322,0.0285 1.4285712,1.428572 0 0 1 0.02244,0.0291 1.4285712,1.428572 0 0 1 0.0217,0.0297 1.4285712,1.428572 0 0 1 0.02093,0.0303 1.4285712,1.428572 0 0 1 0.02012,0.0308 1.4285712,1.428572 0 0 1 0.01934,0.0313 1.4285712,1.428572 0 0 1 0.01853,0.0318 1.4285712,1.428572 0 0 1 0.01772,0.0323 1.4285712,1.428572 0 0 1 0.01687,0.0327 1.4285712,1.428572 0 0 1 0.01602,0.0332 1.4285712,1.428572 0 0 1 0.01517,0.0335 1.4285712,1.428572 0 0 1 0.01429,0.0339 1.4285712,1.428572 0 0 1 0.01344,0.0342 1.4285712,1.428572 0 0 1 0.01251,0.0346 1.4285712,1.428572 0 0 1 0.01163,0.0349 1.4285712,1.428572 0 0 1 0.01074,0.0352 1.4285712,1.428572 0 0 1 0.0099,0.0355 1.4285712,1.428572 0 0 1 0.0089,0.0357 1.4285712,1.428572 0 0 1 0.008,0.0359 1.4285712,1.428572 0 0 1 0.0071,0.0361 1.4285712,1.428572 0 0 1 0.0061,0.0363 1.4285712,1.428572 0 0 1 0.0052,0.0364 1.4285712,1.428572 0 0 1 0.0042,0.0365 1.4285712,1.428572 0 0 1 0.0033,0.0366 1.4285712,1.428572 0 0 1 0.0024,0.0367 1.4285712,1.428572 0 0 1 0.0014,0.0368 1.4285712,1.428572 0 0 1 5e-4,0.0368 1.4285712,1.428572 0 0 1 -0.004,0.10675 1.4285712,1.428572 0 0 1 -0.01196,0.10616 1.4285712,1.428572 0 0 1 -0.01986,0.10498 1.4285712,1.428572 0 0 1 -0.02765,0.1032 1.4285712,1.428572 0 0 1 -0.03529,0.10084 1.4285712,1.428572 0 0 1 -0.04271,0.0979 1.4285712,1.428572 0 0 1 -0.04994,0.0945 1.4285712,1.428572 0 0 1 -0.05681,0.0905 1.4285712,1.428572 0 0 1 -0.06345,0.086 1.4285712,1.428572 0 0 1 -0.06969,0.081 1.4285712,1.428572 0 0 1 -0.07552,0.0756 1.4285712,1.428572 0 0 1 -0.08098,0.0697 1.4285712,1.428572 0 0 1 -0.08597,0.0634 1.4285712,1.428572 0 0 1 -0.09047,0.0568 1.4285712,1.428572 0 0 1 -0.09442,0.0499 1.4285712,1.428572 0 0 1 -0.09793,0.0427 1.4285712,1.428572 0 0 1 -0.100843,0.0353 1.4285712,1.428572 0 0 1 -0.103206,0.0276 1.4285712,1.428572 0 0 1 -0.10494,0.0199 1.4285712,1.428572 0 0 1 -0.106195,0.012 1.4285712,1.428572 0 0 1 -0.106748,0.004 1.4285712,1.428572 0 0 1 -0.106749,-0.004 1.4285712,1.428572 0 0 1 -0.106159,-0.012 1.4285712,1.428572 0 0 1 -0.104976,-0.0199 1.4285712,1.428572 0 0 1 -0.103169,-0.0276 1.4285712,1.428572 0 0 1 -0.100842,-0.0353 1.4285712,1.428572 0 0 1 -0.09793,-0.0427 1.4285712,1.428572 0 0 1 -0.09446,-0.0499 v 0.78157 a 2.1428569,2.1428581 0 0 0 0.71428,0.12414 2.1428569,2.1428581 0 0 0 2.142873,-2.14288 2.1428569,2.1428581 0 0 0 -2.142873,-2.14284 2.1428569,2.1428581 0 0 0 -0.71428,0.12414 z" />
  </g>
</svg>
